<?xml version="1.0" encoding="utf-8" standalone="no"?>
<!DOCTYPE svg PUBLIC "-//W3C//DTD SVG 1.1//EN"
  "http://www.w3.org/Graphics/SVG/1.1/DTD/svg11.dtd">
<svg xmlns:xlink="http://www.w3.org/1999/xlink" width="712.800859pt" height="410.400859pt" viewBox="0 0 712.800859 410.400859" xmlns="http://www.w3.org/2000/svg" version="1.1">
 <metadata>
  <rdf:RDF xmlns:dc="http://purl.org/dc/elements/1.1/" xmlns:cc="http://creativecommons.org/ns#" xmlns:rdf="http://www.w3.org/1999/02/22-rdf-syntax-ns#">
   <cc:Work>
    <dc:type rdf:resource="http://purl.org/dc/dcmitype/StillImage"/>
    <dc:date>2026-09-25T14:02:43.887753</dc:date>
    <dc:format>image/svg+xml</dc:format>
    <dc:creator>
     <cc:Agent>
      <dc:title>Matplotlib v3.11.2, https://matplotlib.org/</dc:title>
     </cc:Agent>
    </dc:creator>
   </cc:Work>
  </rdf:RDF>
 </metadata>
 <defs>
  <style type="text/css">*{stroke-linejoin: round; stroke-linecap: butt}</style>
 </defs>
 <g id="figure_1">
  <g id="patch_1">
   <path d="M 0 410.400859 
L 712.800859 410.400859 
L 712.800859 0 
L 0 0 
z
" style="fill: #ffffff"/>
  </g>
  <g id="axes_1">
   <g id="patch_2">
    <path d="M 22.200859 388.2 
L 148.481294 388.2 
L 148.481294 7.2 
L 22.200859 7.2 
z
" clip-path="url(#pa0d10184d0)" style="fill: #fbe5e7; opacity: 0.8; stroke: #fbe5e7; stroke-linejoin: miter"/>
   </g>
   <g id="patch_3">
    <path d="M 148.481294 388.2 
L 349.044338 388.2 
L 349.044338 7.2 
L 148.481294 7.2 
z
" clip-path="url(#pa0d10184d0)" style="fill: #e8f7ef; opacity: 0.8; stroke: #e8f7ef; stroke-linejoin: miter"/>
   </g>
   <g id="patch_4">
    <path d="M 349.044338 388.2 
L 683.316077 388.2 
L 683.316077 7.2 
L 349.044338 7.2 
z
" clip-path="url(#pa0d10184d0)" style="fill: #e8f0fb; opacity: 0.8; stroke: #e8f0fb; stroke-linejoin: miter"/>
   </g>
   <g id="matplotlib.axis_1">
    <g id="text_1">
     <!-- Time (days) -->
     <g transform="translate(331.419062 400.558281) scale(0.11 -0.11)">
      <defs>
       <path id="DejaVuSans-37" d="M -19 4666 
L 3928 4666 
L 3928 4134 
L 2272 4134 
L 2272 0 
L 1638 0 
L 1638 4134 
L -19 4134 
L -19 4666 
z
" transform="scale(0.015625)"/>
       <path id="DejaVuSans-4c" d="M 603 3500 
L 1178 3500 
L 1178 0 
L 603 0 
L 603 3500 
z
M 603 4863 
L 1178 4863 
L 1178 4134 
L 603 4134 
L 603 4863 
z
" transform="scale(0.015625)"/>
       <path id="DejaVuSans-50" d="M 3328 2828 
Q 3544 3216 3844 3400 
Q 4144 3584 4550 3584 
Q 5097 3584 5394 3201 
Q 5691 2819 5691 2113 
L 5691 0 
L 5113 0 
L 5113 2094 
Q 5113 2597 4934 2840 
Q 4756 3084 4391 3084 
Q 3944 3084 3684 2787 
Q 3425 2491 3425 1978 
L 3425 0 
L 2847 0 
L 2847 2094 
Q 2847 2600 2669 2842 
Q 2491 3084 2119 3084 
Q 1678 3084 1418 2786 
Q 1159 2488 1159 1978 
L 1159 0 
L 581 0 
L 581 3500 
L 1159 3500 
L 1159 2956 
Q 1356 3278 1631 3431 
Q 1906 3584 2284 3584 
Q 2666 3584 2933 3390 
Q 3200 3197 3328 2828 
z
" transform="scale(0.015625)"/>
       <path id="DejaVuSans-48" d="M 3597 1894 
L 3597 1613 
L 953 1613 
Q 991 1019 1311 708 
Q 1631 397 2203 397 
Q 2534 397 2845 478 
Q 3156 559 3463 722 
L 3463 178 
Q 3153 47 2828 -22 
Q 2503 -91 2169 -91 
Q 1331 -91 842 396 
Q 353 884 353 1716 
Q 353 2575 817 3079 
Q 1281 3584 2069 3584 
Q 2775 3584 3186 3129 
Q 3597 2675 3597 1894 
z
M 3022 2063 
Q 3016 2534 2758 2815 
Q 2500 3097 2075 3097 
Q 1594 3097 1305 2825 
Q 1016 2553 972 2059 
L 3022 2063 
z
" transform="scale(0.015625)"/>
       <path id="DejaVuSans-3" transform="scale(0.015625)"/>
       <path id="DejaVuSans-b" d="M 1984 4856 
Q 1566 4138 1362 3434 
Q 1159 2731 1159 2009 
Q 1159 1288 1364 580 
Q 1569 -128 1984 -844 
L 1484 -844 
Q 1016 -109 783 600 
Q 550 1309 550 2009 
Q 550 2706 781 3412 
Q 1013 4119 1484 4856 
L 1984 4856 
z
" transform="scale(0.015625)"/>
       <path id="DejaVuSans-47" d="M 2906 2969 
L 2906 4863 
L 3481 4863 
L 3481 0 
L 2906 0 
L 2906 525 
Q 2725 213 2448 61 
Q 2172 -91 1784 -91 
Q 1150 -91 751 415 
Q 353 922 353 1747 
Q 353 2572 751 3078 
Q 1150 3584 1784 3584 
Q 2172 3584 2448 3432 
Q 2725 3281 2906 2969 
z
M 947 1747 
Q 947 1113 1208 752 
Q 1469 391 1925 391 
Q 2381 391 2643 752 
Q 2906 1113 2906 1747 
Q 2906 2381 2643 2742 
Q 2381 3103 1925 3103 
Q 1469 3103 1208 2742 
Q 947 2381 947 1747 
z
" transform="scale(0.015625)"/>
       <path id="DejaVuSans-44" d="M 2194 1759 
Q 1497 1759 1228 1600 
Q 959 1441 959 1056 
Q 959 750 1161 570 
Q 1363 391 1709 391 
Q 2188 391 2477 730 
Q 2766 1069 2766 1631 
L 2766 1759 
L 2194 1759 
z
M 3341 1997 
L 3341 0 
L 2766 0 
L 2766 531 
Q 2569 213 2275 61 
Q 1981 -91 1556 -91 
Q 1019 -91 701 211 
Q 384 513 384 1019 
Q 384 1609 779 1909 
Q 1175 2209 1959 2209 
L 2766 2209 
L 2766 2266 
Q 2766 2663 2505 2880 
Q 2244 3097 1772 3097 
Q 1472 3097 1187 3025 
Q 903 2953 641 2809 
L 641 3341 
Q 956 3463 1253 3523 
Q 1550 3584 1831 3584 
Q 2591 3584 2966 3190 
Q 3341 2797 3341 1997 
z
" transform="scale(0.015625)"/>
       <path id="DejaVuSans-5c" d="M 2059 -325 
Q 1816 -950 1584 -1140 
Q 1353 -1331 966 -1331 
L 506 -1331 
L 506 -850 
L 844 -850 
Q 1081 -850 1212 -737 
Q 1344 -625 1503 -206 
L 1606 56 
L 191 3500 
L 800 3500 
L 1894 763 
L 2988 3500 
L 3597 3500 
L 2059 -325 
z
" transform="scale(0.015625)"/>
       <path id="DejaVuSans-56" d="M 2834 3397 
L 2834 2853 
Q 2591 2978 2328 3040 
Q 2066 3103 1784 3103 
Q 1356 3103 1142 2972 
Q 928 2841 928 2578 
Q 928 2378 1081 2264 
Q 1234 2150 1697 2047 
L 1894 2003 
Q 2506 1872 2764 1633 
Q 3022 1394 3022 966 
Q 3022 478 2636 193 
Q 2250 -91 1575 -91 
Q 1294 -91 989 -36 
Q 684 19 347 128 
L 347 722 
Q 666 556 975 473 
Q 1284 391 1588 391 
Q 1994 391 2212 530 
Q 2431 669 2431 922 
Q 2431 1156 2273 1281 
Q 2116 1406 1581 1522 
L 1381 1569 
Q 847 1681 609 1914 
Q 372 2147 372 2553 
Q 372 3047 722 3315 
Q 1072 3584 1716 3584 
Q 2034 3584 2315 3537 
Q 2597 3491 2834 3397 
z
" transform="scale(0.015625)"/>
       <path id="DejaVuSans-c" d="M 513 4856 
L 1013 4856 
Q 1481 4119 1714 3412 
Q 1947 2706 1947 2009 
Q 1947 1309 1714 600 
Q 1481 -109 1013 -844 
L 513 -844 
Q 928 -128 1133 580 
Q 1338 1288 1338 2009 
Q 1338 2731 1133 3434 
Q 928 4138 513 4856 
z
" transform="scale(0.015625)"/>
      </defs>
      <use xlink:href="#DejaVuSans-37"/>
      <use xlink:href="#DejaVuSans-4c" transform="translate(58 0)"/>
      <use xlink:href="#DejaVuSans-50" transform="translate(85.78125 0)"/>
      <use xlink:href="#DejaVuSans-48" transform="translate(183.1875 0)"/>
      <use xlink:href="#DejaVuSans-3" transform="translate(244.71875 0)"/>
      <use xlink:href="#DejaVuSans-b" transform="translate(276.5 0)"/>
      <use xlink:href="#DejaVuSans-47" transform="translate(315.515625 0)"/>
      <use xlink:href="#DejaVuSans-44" transform="translate(379 0)"/>
      <use xlink:href="#DejaVuSans-5c" transform="translate(440.28125 0)"/>
      <use xlink:href="#DejaVuSans-56" transform="translate(499.46875 0)"/>
      <use xlink:href="#DejaVuSans-c" transform="translate(551.5625 0)"/>
     </g>
    </g>
   </g>
   <g id="matplotlib.axis_2">
    <g id="text_2">
     <!-- Ion concentration / flux -->
     <g transform="translate(15.558281 261.567031) rotate(-90) scale(0.11 -0.11)">
      <defs>
       <path id="DejaVuSans-2c" d="M 628 4666 
L 1259 4666 
L 1259 0 
L 628 0 
L 628 4666 
z
" transform="scale(0.015625)"/>
       <path id="DejaVuSans-52" d="M 1959 3097 
Q 1497 3097 1228 2736 
Q 959 2375 959 1747 
Q 959 1119 1226 758 
Q 1494 397 1959 397 
Q 2419 397 2687 759 
Q 2956 1122 2956 1747 
Q 2956 2369 2687 2733 
Q 2419 3097 1959 3097 
z
M 1959 3584 
Q 2709 3584 3137 3096 
Q 3566 2609 3566 1747 
Q 3566 888 3137 398 
Q 2709 -91 1959 -91 
Q 1206 -91 779 398 
Q 353 888 353 1747 
Q 353 2609 779 3096 
Q 1206 3584 1959 3584 
z
" transform="scale(0.015625)"/>
       <path id="DejaVuSans-51" d="M 3513 2113 
L 3513 0 
L 2938 0 
L 2938 2094 
Q 2938 2591 2744 2837 
Q 2550 3084 2163 3084 
Q 1697 3084 1428 2787 
Q 1159 2491 1159 1978 
L 1159 0 
L 581 0 
L 581 3500 
L 1159 3500 
L 1159 2956 
Q 1366 3272 1645 3428 
Q 1925 3584 2291 3584 
Q 2894 3584 3203 3211 
Q 3513 2838 3513 2113 
z
" transform="scale(0.015625)"/>
       <path id="DejaVuSans-46" d="M 3122 3366 
L 3122 2828 
Q 2878 2963 2633 3030 
Q 2388 3097 2138 3097 
Q 1578 3097 1268 2742 
Q 959 2388 959 1747 
Q 959 1106 1268 751 
Q 1578 397 2138 397 
Q 2388 397 2633 464 
Q 2878 531 3122 666 
L 3122 134 
Q 2881 22 2623 -34 
Q 2366 -91 2075 -91 
Q 1284 -91 818 406 
Q 353 903 353 1747 
Q 353 2603 823 3093 
Q 1294 3584 2113 3584 
Q 2378 3584 2631 3529 
Q 2884 3475 3122 3366 
z
" transform="scale(0.015625)"/>
       <path id="DejaVuSans-57" d="M 1172 4494 
L 1172 3500 
L 2356 3500 
L 2356 3053 
L 1172 3053 
L 1172 1153 
Q 1172 725 1289 603 
Q 1406 481 1766 481 
L 2356 481 
L 2356 0 
L 1766 0 
Q 1100 0 847 248 
Q 594 497 594 1153 
L 594 3053 
L 172 3053 
L 172 3500 
L 594 3500 
L 594 4494 
L 1172 4494 
z
" transform="scale(0.015625)"/>
       <path id="DejaVuSans-55" d="M 2631 2963 
Q 2534 3019 2420 3045 
Q 2306 3072 2169 3072 
Q 1681 3072 1420 2755 
Q 1159 2438 1159 1844 
L 1159 0 
L 581 0 
L 581 3500 
L 1159 3500 
L 1159 2956 
Q 1341 3275 1631 3429 
Q 1922 3584 2338 3584 
Q 2397 3584 2469 3576 
Q 2541 3569 2628 3553 
L 2631 2963 
z
" transform="scale(0.015625)"/>
       <path id="DejaVuSans-12" d="M 1625 4666 
L 2156 4666 
L 531 -594 
L 0 -594 
L 1625 4666 
z
" transform="scale(0.015625)"/>
       <path id="DejaVuSans-13b0" d="M 1831 4863 
L 3431 4863 
L 3431 0 
L 2853 0 
L 2853 4384 
L 1825 4384 
Q 1516 4384 1395 4259 
Q 1275 4134 1275 3809 
L 1275 3500 
L 2222 3500 
L 2222 3053 
L 1275 3053 
L 1275 0 
L 697 0 
L 697 3053 
L 147 3053 
L 147 3500 
L 697 3500 
L 697 3744 
Q 697 4328 969 4595 
Q 1241 4863 1831 4863 
z
" transform="scale(0.015625)"/>
       <path id="DejaVuSans-58" d="M 544 1381 
L 544 3500 
L 1119 3500 
L 1119 1403 
Q 1119 906 1312 657 
Q 1506 409 1894 409 
Q 2359 409 2629 706 
Q 2900 1003 2900 1516 
L 2900 3500 
L 3475 3500 
L 3475 0 
L 2900 0 
L 2900 538 
Q 2691 219 2414 64 
Q 2138 -91 1772 -91 
Q 1169 -91 856 284 
Q 544 659 544 1381 
z
M 1991 3584 
L 1991 3584 
z
" transform="scale(0.015625)"/>
       <path id="DejaVuSans-5b" d="M 3513 3500 
L 2247 1797 
L 3578 0 
L 2900 0 
L 1881 1375 
L 863 0 
L 184 0 
L 1544 1831 
L 300 3500 
L 978 3500 
L 1906 2253 
L 2834 3500 
L 3513 3500 
z
" transform="scale(0.015625)"/>
      </defs>
      <use xlink:href="#DejaVuSans-2c"/>
      <use xlink:href="#DejaVuSans-52" transform="translate(29.5 0)"/>
      <use xlink:href="#DejaVuSans-51" transform="translate(90.6875 0)"/>
      <use xlink:href="#DejaVuSans-3" transform="translate(154.0625 0)"/>
      <use xlink:href="#DejaVuSans-46" transform="translate(185.84375 0)"/>
      <use xlink:href="#DejaVuSans-52" transform="translate(240.828125 0)"/>
      <use xlink:href="#DejaVuSans-51" transform="translate(302.015625 0)"/>
      <use xlink:href="#DejaVuSans-46" transform="translate(365.390625 0)"/>
      <use xlink:href="#DejaVuSans-48" transform="translate(420.375 0)"/>
      <use xlink:href="#DejaVuSans-51" transform="translate(481.90625 0)"/>
      <use xlink:href="#DejaVuSans-57" transform="translate(545.28125 0)"/>
      <use xlink:href="#DejaVuSans-55" transform="translate(584.484375 0)"/>
      <use xlink:href="#DejaVuSans-44" transform="translate(625.59375 0)"/>
      <use xlink:href="#DejaVuSans-57" transform="translate(686.875 0)"/>
      <use xlink:href="#DejaVuSans-4c" transform="translate(726.078125 0)"/>
      <use xlink:href="#DejaVuSans-52" transform="translate(753.859375 0)"/>
      <use xlink:href="#DejaVuSans-51" transform="translate(815.046875 0)"/>
      <use xlink:href="#DejaVuSans-3" transform="translate(878.421875 0)"/>
      <use xlink:href="#DejaVuSans-12" transform="translate(910.203125 0)"/>
      <use xlink:href="#DejaVuSans-3" transform="translate(943.890625 0)"/>
      <use xlink:href="#DejaVuSans-13b0" transform="translate(975.671875 0)"/>
      <use xlink:href="#DejaVuSans-58" transform="translate(1038.65625 0)"/>
      <use xlink:href="#DejaVuSans-5b" transform="translate(1102.03125 0)"/>
     </g>
    </g>
   </g>
   <g id="line2d_1">
    <path d="M 148.481294 388.2 
L 148.481294 7.2 
" clip-path="url(#pa0d10184d0)" style="fill: none; stroke-dasharray: 4.44,1.92; stroke-dashoffset: 0; stroke: #808080; stroke-width: 1.2"/>
   </g>
   <g id="line2d_2">
    <path d="M 349.044338 388.2 
L 349.044338 7.2 
" clip-path="url(#pa0d10184d0)" style="fill: none; stroke-dasharray: 4.44,1.92; stroke-dashoffset: 0; stroke: #808080; stroke-width: 1.2"/>
   </g>
   <g id="line2d_3">
    <path d="M 22.200859 315.941379 
L 39.424302 316.956627 
L 57.972625 317.811787 
L 77.845828 318.503905 
L 100.368791 319.068205 
L 128.191275 319.530214 
L 165.28792 319.898852 
L 280.552497 320.880435 
L 318.974023 321.511539 
L 356.070669 322.343372 
L 393.167314 323.395234 
L 434.2386 324.789903 
L 483.259167 326.693892 
L 630.320869 332.580265 
L 667.417514 333.749952 
L 683.316077 334.177681 
L 683.316077 334.177681 
" clip-path="url(#pa0d10184d0)" style="fill: none; stroke-dasharray: 7.4,3.2; stroke-dashoffset: 0; stroke: #a91d33; stroke-width: 2"/>
   </g>
   <g id="line2d_4">
    <path d="M 22.200859 148.148997 
L 43.398942 147.110734 
L 60.622385 146.486943 
L 76.520947 146.140756 
L 91.09463 146.051955 
L 104.343431 146.183518 
L 117.592233 146.534072 
L 130.841035 147.116689 
L 144.089837 147.941282 
L 156.013759 148.895946 
L 167.937681 150.054849 
L 179.861603 151.418673 
L 191.785524 152.986082 
L 205.034326 154.962328 
L 218.283128 157.178469 
L 231.53193 159.624383 
L 244.780732 162.287281 
L 259.354414 165.448751 
L 273.928096 168.830585 
L 289.826659 172.7397 
L 308.374982 177.540064 
L 330.897945 183.623696 
L 370.644351 194.659783 
L 398.466835 202.274192 
L 418.340038 207.489622 
L 435.56348 211.777424 
L 450.137162 215.192188 
L 464.710845 218.376506 
L 477.959647 221.045574 
L 491.208448 223.477693 
L 503.13237 225.448052 
L 515.056292 227.198275 
L 526.980214 228.717259 
L 538.904135 229.99546 
L 549.503177 230.923075 
L 560.102219 231.649747 
L 570.70126 232.17214 
L 581.300302 232.488023 
L 591.899343 232.596293 
L 602.498385 232.496978 
L 613.097426 232.191242 
L 623.696468 231.681376 
L 634.29551 230.970795 
L 646.219431 229.937135 
L 658.143353 228.663241 
L 670.067275 227.158839 
L 681.991197 225.435261 
L 683.316077 225.230767 
L 683.316077 225.230767 
" clip-path="url(#pa0d10184d0)" style="fill: none; stroke-dasharray: 7.4,3.2; stroke-dashoffset: 0; stroke: #a91d33; stroke-width: 2"/>
   </g>
   <g id="line2d_5">
    <path d="M 22.200859 237.113793 
L 39.424302 238.273477 
L 59.297505 239.38266 
L 88.444869 240.762939 
L 132.165916 242.841543 
L 154.688879 244.145839 
L 174.562082 245.521267 
L 193.110405 247.035343 
L 210.333847 248.662707 
L 227.55729 250.515333 
L 244.780732 252.597005 
L 262.004175 254.903842 
L 280.552497 257.626854 
L 299.10082 260.574721 
L 320.298903 264.178055 
L 345.471627 268.701884 
L 390.517554 277.091972 
L 420.989798 282.650481 
L 442.187881 286.303857 
L 460.736204 289.281943 
L 477.959647 291.817134 
L 493.858209 293.927033 
L 508.431891 295.643685 
L 523.005573 297.134259 
L 537.579255 298.384161 
L 550.828057 299.301913 
L 564.076859 300.005107 
L 577.325661 300.48996 
L 590.574463 300.755144 
L 603.823265 300.801809 
L 617.072067 300.633591 
L 630.320869 300.256569 
L 644.894551 299.610851 
L 659.468233 298.737231 
L 675.366796 297.545042 
L 683.316077 296.86334 
L 683.316077 296.86334 
" clip-path="url(#pa0d10184d0)" style="fill: none; stroke: #1d7a6d; stroke-width: 2.8; stroke-linecap: square"/>
   </g>
   <g id="line2d_6">
    <path d="M 22.200859 322.510328 
L 103.018551 322.40796 
L 113.617593 322.190199 
L 120.241994 321.858375 
L 125.541515 321.360451 
L 129.516155 320.75324 
L 132.165916 320.18189 
L 134.815676 319.428591 
L 137.465436 318.438257 
L 140.115197 317.14122 
L 142.764957 315.45089 
L 145.414718 313.262178 
L 146.739598 311.94302 
L 148.064478 310.451693 
L 149.389358 308.770481 
L 150.714238 306.881225 
L 152.039119 304.765754 
L 153.363999 302.406443 
L 154.688879 299.786896 
L 156.013759 296.892779 
L 157.338639 293.712753 
L 159.9884 286.470812 
L 162.63816 278.069523 
L 165.28792 268.627043 
L 169.262561 253.070028 
L 175.886962 226.648529 
L 178.536722 217.081425 
L 181.186483 208.530184 
L 183.836243 201.129268 
L 186.486004 194.900451 
L 187.810884 192.208167 
L 189.135764 189.780224 
L 190.460644 187.600697 
L 191.785524 185.652216 
L 193.110405 183.9167 
L 194.435285 182.375938 
L 195.760165 181.012059 
L 198.409925 178.74709 
L 201.059686 176.996109 
L 203.709446 175.651491 
L 206.359207 174.624219 
L 209.008967 173.842469 
L 211.658727 173.249336 
L 215.633368 172.618782 
L 219.608008 172.204926 
L 224.907529 171.86636 
L 232.85681 171.612315 
L 246.105612 171.469355 
L 279.227617 171.425415 
L 683.316077 171.424138 
L 683.316077 171.424138 
" clip-path="url(#pa0d10184d0)" style="fill: none; stroke: #6b4fa8; stroke-width: 2.8; stroke-linecap: square"/>
   </g>
   <g id="line2d_7">
    <path d="M 22.200859 355.355172 
L 683.316077 345.501724 
L 683.316077 345.501724 
" clip-path="url(#pa0d10184d0)" style="fill: none; stroke: #1f5aa8; stroke-width: 2.8; stroke-linecap: square"/>
   </g>
   <g id="text_3">
    <!-- Phase I -->
    <g transform="translate(64.774671 43.210473) scale(0.1 -0.1)">
     <defs>
      <path id="DejaVuSans-Bold-33" d="M 588 4666 
L 2584 4666 
Q 3475 4666 3951 4270 
Q 4428 3875 4428 3144 
Q 4428 2409 3951 2014 
Q 3475 1619 2584 1619 
L 1791 1619 
L 1791 0 
L 588 0 
L 588 4666 
z
M 1791 3794 
L 1791 2491 
L 2456 2491 
Q 2806 2491 2997 2661 
Q 3188 2831 3188 3144 
Q 3188 3456 2997 3625 
Q 2806 3794 2456 3794 
L 1791 3794 
z
" transform="scale(0.015625)"/>
      <path id="DejaVuSans-Bold-4b" d="M 4056 2131 
L 4056 0 
L 2931 0 
L 2931 347 
L 2931 1625 
Q 2931 2084 2911 2256 
Q 2891 2428 2841 2509 
Q 2775 2619 2662 2680 
Q 2550 2741 2406 2741 
Q 2056 2741 1856 2470 
Q 1656 2200 1656 1722 
L 1656 0 
L 538 0 
L 538 4863 
L 1656 4863 
L 1656 2988 
Q 1909 3294 2193 3439 
Q 2478 3584 2822 3584 
Q 3428 3584 3742 3212 
Q 4056 2841 4056 2131 
z
" transform="scale(0.015625)"/>
      <path id="DejaVuSans-Bold-44" d="M 2106 1575 
Q 1756 1575 1579 1456 
Q 1403 1338 1403 1106 
Q 1403 894 1545 773 
Q 1688 653 1941 653 
Q 2256 653 2472 879 
Q 2688 1106 2688 1447 
L 2688 1575 
L 2106 1575 
z
M 3816 1997 
L 3816 0 
L 2688 0 
L 2688 519 
Q 2463 200 2181 54 
Q 1900 -91 1497 -91 
Q 953 -91 614 226 
Q 275 544 275 1050 
Q 275 1666 698 1953 
Q 1122 2241 2028 2241 
L 2688 2241 
L 2688 2328 
Q 2688 2594 2478 2717 
Q 2269 2841 1825 2841 
Q 1466 2841 1156 2769 
Q 847 2697 581 2553 
L 581 3406 
Q 941 3494 1303 3539 
Q 1666 3584 2028 3584 
Q 2975 3584 3395 3211 
Q 3816 2838 3816 1997 
z
" transform="scale(0.015625)"/>
      <path id="DejaVuSans-Bold-56" d="M 3272 3391 
L 3272 2541 
Q 2913 2691 2578 2766 
Q 2244 2841 1947 2841 
Q 1628 2841 1473 2761 
Q 1319 2681 1319 2516 
Q 1319 2381 1436 2309 
Q 1553 2238 1856 2203 
L 2053 2175 
Q 2913 2066 3209 1816 
Q 3506 1566 3506 1031 
Q 3506 472 3093 190 
Q 2681 -91 1863 -91 
Q 1516 -91 1145 -36 
Q 775 19 384 128 
L 384 978 
Q 719 816 1070 734 
Q 1422 653 1784 653 
Q 2113 653 2278 743 
Q 2444 834 2444 1013 
Q 2444 1163 2330 1236 
Q 2216 1309 1875 1350 
L 1678 1375 
Q 931 1469 631 1722 
Q 331 1975 331 2491 
Q 331 3047 712 3315 
Q 1094 3584 1881 3584 
Q 2191 3584 2531 3537 
Q 2872 3491 3272 3391 
z
" transform="scale(0.015625)"/>
      <path id="DejaVuSans-Bold-48" d="M 4031 1759 
L 4031 1441 
L 1416 1441 
Q 1456 1047 1700 850 
Q 1944 653 2381 653 
Q 2734 653 3104 758 
Q 3475 863 3866 1075 
L 3866 213 
Q 3469 63 3072 -14 
Q 2675 -91 2278 -91 
Q 1328 -91 801 392 
Q 275 875 275 1747 
Q 275 2603 792 3093 
Q 1309 3584 2216 3584 
Q 3041 3584 3536 3087 
Q 4031 2591 4031 1759 
z
M 2881 2131 
Q 2881 2450 2695 2645 
Q 2509 2841 2209 2841 
Q 1884 2841 1681 2658 
Q 1478 2475 1428 2131 
L 2881 2131 
z
" transform="scale(0.015625)"/>
      <path id="DejaVuSans-Bold-3" transform="scale(0.015625)"/>
      <path id="DejaVuSans-Bold-2c" d="M 588 4666 
L 1791 4666 
L 1791 0 
L 588 0 
L 588 4666 
z
" transform="scale(0.015625)"/>
     </defs>
     <use xlink:href="#DejaVuSans-Bold-33"/>
     <use xlink:href="#DejaVuSans-Bold-4b" transform="translate(73.296875 0)"/>
     <use xlink:href="#DejaVuSans-Bold-44" transform="translate(144.484375 0)"/>
     <use xlink:href="#DejaVuSans-Bold-56" transform="translate(211.96875 0)"/>
     <use xlink:href="#DejaVuSans-Bold-48" transform="translate(271.484375 0)"/>
     <use xlink:href="#DejaVuSans-Bold-3" transform="translate(339.3125 0)"/>
     <use xlink:href="#DejaVuSans-Bold-2c" transform="translate(374.125 0)"/>
    </g>
    <!-- 0- -48 h -->
    <g transform="translate(65.454358 55.213207) scale(0.1 -0.1)">
     <defs>
      <path id="DejaVuSans-Bold-13" d="M 2944 2338 
Q 2944 3213 2780 3570 
Q 2616 3928 2228 3928 
Q 1841 3928 1675 3570 
Q 1509 3213 1509 2338 
Q 1509 1453 1675 1090 
Q 1841 728 2228 728 
Q 2613 728 2778 1090 
Q 2944 1453 2944 2338 
z
M 4147 2328 
Q 4147 1169 3647 539 
Q 3147 -91 2228 -91 
Q 1306 -91 806 539 
Q 306 1169 306 2328 
Q 306 3491 806 4120 
Q 1306 4750 2228 4750 
Q 3147 4750 3647 4120 
Q 4147 3491 4147 2328 
z
" transform="scale(0.015625)"/>
      <path id="DejaVuSans-Bold-10" d="M 347 2297 
L 2309 2297 
L 2309 1388 
L 347 1388 
L 347 2297 
z
" transform="scale(0.015625)"/>
      <path id="DejaVuSans-Bold-17" d="M 2356 3675 
L 1038 1722 
L 2356 1722 
L 2356 3675 
z
M 2156 4666 
L 3494 4666 
L 3494 1722 
L 4159 1722 
L 4159 850 
L 3494 850 
L 3494 0 
L 2356 0 
L 2356 850 
L 288 850 
L 288 1881 
L 2156 4666 
z
" transform="scale(0.015625)"/>
      <path id="DejaVuSans-Bold-1b" d="M 2228 2088 
Q 1891 2088 1709 1903 
Q 1528 1719 1528 1375 
Q 1528 1031 1709 848 
Q 1891 666 2228 666 
Q 2563 666 2741 848 
Q 2919 1031 2919 1375 
Q 2919 1722 2741 1905 
Q 2563 2088 2228 2088 
z
M 1350 2484 
Q 925 2613 709 2878 
Q 494 3144 494 3541 
Q 494 4131 934 4440 
Q 1375 4750 2228 4750 
Q 3075 4750 3515 4442 
Q 3956 4134 3956 3541 
Q 3956 3144 3739 2878 
Q 3522 2613 3097 2484 
Q 3572 2353 3814 2058 
Q 4056 1763 4056 1313 
Q 4056 619 3595 264 
Q 3134 -91 2228 -91 
Q 1319 -91 855 264 
Q 391 619 391 1313 
Q 391 1763 633 2058 
Q 875 2353 1350 2484 
z
M 1631 3419 
Q 1631 3141 1786 2991 
Q 1941 2841 2228 2841 
Q 2509 2841 2662 2991 
Q 2816 3141 2816 3419 
Q 2816 3697 2662 3845 
Q 2509 3994 2228 3994 
Q 1941 3994 1786 3844 
Q 1631 3694 1631 3419 
z
" transform="scale(0.015625)"/>
     </defs>
     <use xlink:href="#DejaVuSans-Bold-13"/>
     <use xlink:href="#DejaVuSans-Bold-10" transform="translate(69.578125 0)"/>
     <use xlink:href="#DejaVuSans-Bold-10" transform="translate(111.078125 0)"/>
     <use xlink:href="#DejaVuSans-Bold-17" transform="translate(152.578125 0)"/>
     <use xlink:href="#DejaVuSans-Bold-1b" transform="translate(222.15625 0)"/>
     <use xlink:href="#DejaVuSans-Bold-3" transform="translate(291.734375 0)"/>
     <use xlink:href="#DejaVuSans-Bold-4b" transform="translate(326.546875 0)"/>
    </g>
   </g>
   <g id="text_4">
    <!-- Phase II -->
    <g transform="translate(226.336253 43.210863) scale(0.1 -0.1)">
     <use xlink:href="#DejaVuSans-Bold-33"/>
     <use xlink:href="#DejaVuSans-Bold-4b" transform="translate(73.296875 0)"/>
     <use xlink:href="#DejaVuSans-Bold-44" transform="translate(144.484375 0)"/>
     <use xlink:href="#DejaVuSans-Bold-56" transform="translate(211.96875 0)"/>
     <use xlink:href="#DejaVuSans-Bold-48" transform="translate(271.484375 0)"/>
     <use xlink:href="#DejaVuSans-Bold-3" transform="translate(339.3125 0)"/>
     <use xlink:href="#DejaVuSans-Bold-2c" transform="translate(374.125 0)"/>
     <use xlink:href="#DejaVuSans-Bold-2c" transform="translate(411.328125 0)"/>
    </g>
    <!-- D3- -D7 -->
    <g transform="translate(229.353441 55.212817) scale(0.1 -0.1)">
     <defs>
      <path id="DejaVuSans-Bold-27" d="M 1791 3756 
L 1791 909 
L 2222 909 
Q 2959 909 3348 1275 
Q 3738 1641 3738 2338 
Q 3738 3031 3350 3393 
Q 2963 3756 2222 3756 
L 1791 3756 
z
M 588 4666 
L 1856 4666 
Q 2919 4666 3439 4514 
Q 3959 4363 4331 4000 
Q 4659 3684 4818 3271 
Q 4978 2859 4978 2338 
Q 4978 1809 4818 1395 
Q 4659 981 4331 666 
Q 3956 303 3431 151 
Q 2906 0 1856 0 
L 588 0 
L 588 4666 
z
" transform="scale(0.015625)"/>
      <path id="DejaVuSans-Bold-16" d="M 2981 2516 
Q 3453 2394 3698 2092 
Q 3944 1791 3944 1325 
Q 3944 631 3412 270 
Q 2881 -91 1863 -91 
Q 1503 -91 1142 -33 
Q 781 25 428 141 
L 428 1069 
Q 766 900 1098 814 
Q 1431 728 1753 728 
Q 2231 728 2486 893 
Q 2741 1059 2741 1369 
Q 2741 1688 2480 1852 
Q 2219 2016 1709 2016 
L 1228 2016 
L 1228 2791 
L 1734 2791 
Q 2188 2791 2409 2933 
Q 2631 3075 2631 3366 
Q 2631 3634 2415 3781 
Q 2200 3928 1806 3928 
Q 1516 3928 1219 3862 
Q 922 3797 628 3669 
L 628 4550 
Q 984 4650 1334 4700 
Q 1684 4750 2022 4750 
Q 2931 4750 3382 4451 
Q 3834 4153 3834 3553 
Q 3834 3144 3618 2883 
Q 3403 2622 2981 2516 
z
" transform="scale(0.015625)"/>
      <path id="DejaVuSans-Bold-1a" d="M 428 4666 
L 3944 4666 
L 3944 3988 
L 2125 0 
L 953 0 
L 2675 3781 
L 428 3781 
L 428 4666 
z
" transform="scale(0.015625)"/>
     </defs>
     <use xlink:href="#DejaVuSans-Bold-27"/>
     <use xlink:href="#DejaVuSans-Bold-16" transform="translate(83.015625 0)"/>
     <use xlink:href="#DejaVuSans-Bold-10" transform="translate(152.59375 0)"/>
     <use xlink:href="#DejaVuSans-Bold-10" transform="translate(194.09375 0)"/>
     <use xlink:href="#DejaVuSans-Bold-27" transform="translate(235.59375 0)"/>
     <use xlink:href="#DejaVuSans-Bold-1a" transform="translate(318.609375 0)"/>
    </g>
   </g>
   <g id="text_5">
    <!-- Phase III -->
    <g transform="translate(491.893488 43.210863) scale(0.1 -0.1)">
     <use xlink:href="#DejaVuSans-Bold-33"/>
     <use xlink:href="#DejaVuSans-Bold-4b" transform="translate(73.296875 0)"/>
     <use xlink:href="#DejaVuSans-Bold-44" transform="translate(144.484375 0)"/>
     <use xlink:href="#DejaVuSans-Bold-56" transform="translate(211.96875 0)"/>
     <use xlink:href="#DejaVuSans-Bold-48" transform="translate(271.484375 0)"/>
     <use xlink:href="#DejaVuSans-Bold-3" transform="translate(339.3125 0)"/>
     <use xlink:href="#DejaVuSans-Bold-2c" transform="translate(374.125 0)"/>
     <use xlink:href="#DejaVuSans-Bold-2c" transform="translate(411.328125 0)"/>
     <use xlink:href="#DejaVuSans-Bold-2c" transform="translate(448.53125 0)"/>
    </g>
    <!-- $&gt;$D14 -->
    <g transform="translate(498.930207 55.212817) scale(0.1 -0.1)">
     <defs>
      <path id="DejaVuSans-21" d="M 678 3150 
L 678 3719 
L 4684 2266 
L 4684 1747 
L 678 294 
L 678 863 
L 3897 2003 
L 678 3150 
z
" transform="scale(0.015625)"/>
      <path id="DejaVuSans-Bold-14" d="M 750 831 
L 1813 831 
L 1813 3847 
L 722 3622 
L 722 4441 
L 1806 4666 
L 2950 4666 
L 2950 831 
L 4013 831 
L 4013 0 
L 750 0 
L 750 831 
z
" transform="scale(0.015625)"/>
     </defs>
     <use xlink:href="#DejaVuSans-21" transform="translate(19.482422 0.09375)"/>
     <use xlink:href="#DejaVuSans-Bold-27" transform="translate(122.753906 0.09375)"/>
     <use xlink:href="#DejaVuSans-Bold-14" transform="translate(205.761719 0.09375)"/>
     <use xlink:href="#DejaVuSans-Bold-17" transform="translate(275.341797 0.09375)"/>
    </g>
   </g>
   <g id="text_6">
    <!-- admissible -->
    <g style="fill: #1d7a6d" transform="translate(393.613903 177.993103) scale(0.1 -0.1)">
     <defs>
      <path id="DejaVuSans-Bold-47" d="M 2919 2988 
L 2919 4863 
L 4044 4863 
L 4044 0 
L 2919 0 
L 2919 506 
Q 2688 197 2409 53 
Q 2131 -91 1766 -91 
Q 1119 -91 703 423 
Q 288 938 288 1747 
Q 288 2556 703 3070 
Q 1119 3584 1766 3584 
Q 2128 3584 2408 3439 
Q 2688 3294 2919 2988 
z
M 2181 722 
Q 2541 722 2730 984 
Q 2919 1247 2919 1747 
Q 2919 2247 2730 2509 
Q 2541 2772 2181 2772 
Q 1825 2772 1636 2509 
Q 1447 2247 1447 1747 
Q 1447 1247 1636 984 
Q 1825 722 2181 722 
z
" transform="scale(0.015625)"/>
      <path id="DejaVuSans-Bold-50" d="M 3781 2919 
Q 3994 3244 4286 3414 
Q 4578 3584 4928 3584 
Q 5531 3584 5847 3212 
Q 6163 2841 6163 2131 
L 6163 0 
L 5038 0 
L 5038 1825 
Q 5041 1866 5042 1909 
Q 5044 1953 5044 2034 
Q 5044 2406 4934 2573 
Q 4825 2741 4581 2741 
Q 4263 2741 4089 2478 
Q 3916 2216 3909 1719 
L 3909 0 
L 2784 0 
L 2784 1825 
Q 2784 2406 2684 2573 
Q 2584 2741 2328 2741 
Q 2006 2741 1831 2477 
Q 1656 2213 1656 1722 
L 1656 0 
L 531 0 
L 531 3500 
L 1656 3500 
L 1656 2988 
Q 1863 3284 2130 3434 
Q 2397 3584 2719 3584 
Q 3081 3584 3359 3409 
Q 3638 3234 3781 2919 
z
" transform="scale(0.015625)"/>
      <path id="DejaVuSans-Bold-4c" d="M 538 3500 
L 1656 3500 
L 1656 0 
L 538 0 
L 538 3500 
z
M 538 4863 
L 1656 4863 
L 1656 3950 
L 538 3950 
L 538 4863 
z
" transform="scale(0.015625)"/>
      <path id="DejaVuSans-Bold-45" d="M 2400 722 
Q 2759 722 2948 984 
Q 3138 1247 3138 1747 
Q 3138 2247 2948 2509 
Q 2759 2772 2400 2772 
Q 2041 2772 1848 2508 
Q 1656 2244 1656 1747 
Q 1656 1250 1848 986 
Q 2041 722 2400 722 
z
M 1656 2988 
Q 1888 3294 2169 3439 
Q 2450 3584 2816 3584 
Q 3463 3584 3878 3070 
Q 4294 2556 4294 1747 
Q 4294 938 3878 423 
Q 3463 -91 2816 -91 
Q 2450 -91 2169 54 
Q 1888 200 1656 506 
L 1656 0 
L 538 0 
L 538 4863 
L 1656 4863 
L 1656 2988 
z
" transform="scale(0.015625)"/>
      <path id="DejaVuSans-Bold-4f" d="M 538 4863 
L 1656 4863 
L 1656 0 
L 538 0 
L 538 4863 
z
" transform="scale(0.015625)"/>
     </defs>
     <use xlink:href="#DejaVuSans-Bold-44"/>
     <use xlink:href="#DejaVuSans-Bold-47" transform="translate(67.484375 0)"/>
     <use xlink:href="#DejaVuSans-Bold-50" transform="translate(139.0625 0)"/>
     <use xlink:href="#DejaVuSans-Bold-4c" transform="translate(243.265625 0)"/>
     <use xlink:href="#DejaVuSans-Bold-56" transform="translate(277.546875 0)"/>
     <use xlink:href="#DejaVuSans-Bold-56" transform="translate(337.0625 0)"/>
     <use xlink:href="#DejaVuSans-Bold-4c" transform="translate(396.578125 0)"/>
     <use xlink:href="#DejaVuSans-Bold-45" transform="translate(430.859375 0)"/>
     <use xlink:href="#DejaVuSans-Bold-4f" transform="translate(502.4375 0)"/>
     <use xlink:href="#DejaVuSans-Bold-48" transform="translate(536.71875 0)"/>
    </g>
   </g>
   <g id="text_7">
    <!-- overshoot -->
    <g style="fill: #6b4fa8" transform="translate(185.622599 138.57931) scale(0.1 -0.1)">
     <defs>
      <path id="DejaVuSans-Bold-52" d="M 2203 2784 
Q 1831 2784 1636 2517 
Q 1441 2250 1441 1747 
Q 1441 1244 1636 976 
Q 1831 709 2203 709 
Q 2569 709 2762 976 
Q 2956 1244 2956 1747 
Q 2956 2250 2762 2517 
Q 2569 2784 2203 2784 
z
M 2203 3584 
Q 3106 3584 3614 3096 
Q 4122 2609 4122 1747 
Q 4122 884 3614 396 
Q 3106 -91 2203 -91 
Q 1297 -91 786 396 
Q 275 884 275 1747 
Q 275 2609 786 3096 
Q 1297 3584 2203 3584 
z
" transform="scale(0.015625)"/>
      <path id="DejaVuSans-Bold-59" d="M 97 3500 
L 1216 3500 
L 2088 1081 
L 2956 3500 
L 4078 3500 
L 2700 0 
L 1472 0 
L 97 3500 
z
" transform="scale(0.015625)"/>
      <path id="DejaVuSans-Bold-55" d="M 3138 2547 
Q 2991 2616 2845 2648 
Q 2700 2681 2553 2681 
Q 2122 2681 1889 2404 
Q 1656 2128 1656 1613 
L 1656 0 
L 538 0 
L 538 3500 
L 1656 3500 
L 1656 2925 
Q 1872 3269 2151 3426 
Q 2431 3584 2822 3584 
Q 2878 3584 2943 3579 
Q 3009 3575 3134 3559 
L 3138 2547 
z
" transform="scale(0.015625)"/>
      <path id="DejaVuSans-Bold-57" d="M 1759 4494 
L 1759 3500 
L 2913 3500 
L 2913 2700 
L 1759 2700 
L 1759 1216 
Q 1759 972 1856 886 
Q 1953 800 2241 800 
L 2816 800 
L 2816 0 
L 1856 0 
Q 1194 0 917 276 
Q 641 553 641 1216 
L 641 2700 
L 84 2700 
L 84 3500 
L 641 3500 
L 641 4494 
L 1759 4494 
z
" transform="scale(0.015625)"/>
     </defs>
     <use xlink:href="#DejaVuSans-Bold-52"/>
     <use xlink:href="#DejaVuSans-Bold-59" transform="translate(68.703125 0)"/>
     <use xlink:href="#DejaVuSans-Bold-48" transform="translate(133.890625 0)"/>
     <use xlink:href="#DejaVuSans-Bold-55" transform="translate(201.71875 0)"/>
     <use xlink:href="#DejaVuSans-Bold-56" transform="translate(251.03125 0)"/>
     <use xlink:href="#DejaVuSans-Bold-4b" transform="translate(310.546875 0)"/>
     <use xlink:href="#DejaVuSans-Bold-52" transform="translate(381.734375 0)"/>
     <use xlink:href="#DejaVuSans-Bold-52" transform="translate(450.4375 0)"/>
     <use xlink:href="#DejaVuSans-Bold-57" transform="translate(519.140625 0)"/>
    </g>
   </g>
   <g id="text_8">
    <!-- undershoot -->
    <g style="fill: #1f5aa8" transform="translate(482.753033 355.355172) scale(0.1 -0.1)">
     <defs>
      <path id="DejaVuSans-Bold-58" d="M 500 1363 
L 500 3500 
L 1625 3500 
L 1625 3150 
Q 1625 2866 1622 2436 
Q 1619 2006 1619 1863 
Q 1619 1441 1641 1255 
Q 1663 1069 1716 984 
Q 1784 875 1895 815 
Q 2006 756 2150 756 
Q 2500 756 2700 1025 
Q 2900 1294 2900 1772 
L 2900 3500 
L 4019 3500 
L 4019 0 
L 2900 0 
L 2900 506 
Q 2647 200 2364 54 
Q 2081 -91 1741 -91 
Q 1134 -91 817 281 
Q 500 653 500 1363 
z
" transform="scale(0.015625)"/>
      <path id="DejaVuSans-Bold-51" d="M 4056 2131 
L 4056 0 
L 2931 0 
L 2931 347 
L 2931 1631 
Q 2931 2084 2911 2256 
Q 2891 2428 2841 2509 
Q 2775 2619 2662 2680 
Q 2550 2741 2406 2741 
Q 2056 2741 1856 2470 
Q 1656 2200 1656 1722 
L 1656 0 
L 538 0 
L 538 3500 
L 1656 3500 
L 1656 2988 
Q 1909 3294 2193 3439 
Q 2478 3584 2822 3584 
Q 3428 3584 3742 3212 
Q 4056 2841 4056 2131 
z
" transform="scale(0.015625)"/>
     </defs>
     <use xlink:href="#DejaVuSans-Bold-58"/>
     <use xlink:href="#DejaVuSans-Bold-51" transform="translate(71.1875 0)"/>
     <use xlink:href="#DejaVuSans-Bold-47" transform="translate(142.375 0)"/>
     <use xlink:href="#DejaVuSans-Bold-48" transform="translate(213.953125 0)"/>
     <use xlink:href="#DejaVuSans-Bold-55" transform="translate(281.78125 0)"/>
     <use xlink:href="#DejaVuSans-Bold-56" transform="translate(331.09375 0)"/>
     <use xlink:href="#DejaVuSans-Bold-4b" transform="translate(390.609375 0)"/>
     <use xlink:href="#DejaVuSans-Bold-52" transform="translate(461.796875 0)"/>
     <use xlink:href="#DejaVuSans-Bold-52" transform="translate(530.5 0)"/>
     <use xlink:href="#DejaVuSans-Bold-57" transform="translate(599.203125 0)"/>
    </g>
   </g>
  </g>
 </g>
 <defs>
  <clipPath id="pa0d10184d0">
   <rect x="22.200859" y="7.2" width="683.4" height="381"/>
  </clipPath>
 </defs>
</svg>
