<?xml version="1.0" encoding="utf-8" standalone="no"?>
<!DOCTYPE svg PUBLIC "-//W3C//DTD SVG 1.1//EN"
  "http://www.w3.org/Graphics/SVG/1.1/DTD/svg11.dtd">
<svg xmlns="http://www.w3.org/2000/svg" xmlns:xlink="http://www.w3.org/1999/xlink" width="712.800859pt" height="410.400859pt" viewBox="0 0 712.800859 410.400859" version="1.1">
  <metadata>
    <rdf:RDF xmlns:dc="http://purl.org/dc/elements/1.1/" xmlns:cc="http://creativecommons.org/ns#" xmlns:rdf="http://www.w3.org/1999/02/22-rdf-syntax-ns#">
      <cc:Work>
        <dc:type rdf:resource="http://purl.org/dc/dcmitype/StillImage"/>
        <dc:date>2026-10-05</dc:date>
        <dc:format>image/svg+xml</dc:format>
        <dc:creator>
          <cc:Agent>
            <dc:title>KineticAI-AWGC Kinetic Trajectory Mapper</dc:title>
          </cc:Agent>
        </dc:creator>
      </cc:Work>
    </rdf:RDF>
  </metadata>

  <defs>
    <style type="text/css">
      .phase-bg-1 { fill: #fbe5e7; fill-opacity: 0.75; }
      .phase-bg-2 { fill: #e8f7ef; fill-opacity: 0.75; }
      .phase-bg-3 { fill: #e8f0fb; fill-opacity: 0.75; }
      .axis-border { fill: none; stroke: #2c3e50; stroke-width: 1.8; }
      .phase-divider { stroke: #7f8c8d; stroke-width: 1.5; stroke-dasharray: 5,4; }
      .corridor-bound { fill: none; stroke: #a91d33; stroke-width: 2; stroke-dasharray: 7,3; }
      .corridor-fill { fill: #a91d33; fill-opacity: 0.05; }
      .traj-admissible { fill: none; stroke: #1d7a6d; stroke-width: 2.8; stroke-linecap: round; }
      .traj-overshoot { fill: none; stroke: #6b4fa8; stroke-width: 2.8; stroke-linecap: round; }
      .traj-undershoot { fill: none; stroke: #1f5aa8; stroke-width: 2.8; stroke-linecap: round; }
      .phase-title { font-family: 'DejaVu Sans', Helvetica, Arial, sans-serif; font-size: 13px; font-weight: bold; }
      .phase-sub { font-family: 'DejaVu Sans', Helvetica, Arial, sans-serif; font-size: 11px; fill: #555555; }
      .axis-label { font-family: 'DejaVu Sans', Helvetica, Arial, sans-serif; font-size: 12px; font-weight: bold; fill: #2c3e50; }
      .traj-label { font-family: 'DejaVu Sans', Helvetica, Arial, sans-serif; font-size: 11px; font-weight: bold; }
    </style>
    <clipPath id="plot_clip">
      <rect x="22.200859" y="7.2" width="661.115218" height="381.0"/>
    </clipPath>
  </defs>

  <!-- Background Canvas -->
  <rect x="0" y="0" width="712.800859" height="410.400859" fill="#ffffff"/>

  <g id="figure_1">
    
    <!-- Phase Background Regions -->
    <!-- Phase I (0 - 48 h) -->
    <rect class="phase-bg-1" x="22.200859" y="7.2" width="126.280435" height="381.0" clip-path="url(#plot_clip)"/>
    <!-- Phase II (D3 - D7) -->
    <rect class="phase-bg-2" x="148.481294" y="7.2" width="200.563044" height="381.0" clip-path="url(#plot_clip)"/>
    <!-- Phase III (> D14) -->
    <rect class="phase-bg-3" x="349.044338" y="7.2" width="334.271739" height="381.0" clip-path="url(#plot_clip)"/>

    <!-- Shaded Target Corridor (Between Upper & Lower Crimson Bounds) -->
    <path class="corridor-fill" d="
      M 22.200859 315.941379 
      L 39.424302 316.956627 L 57.972625 317.811787 L 77.845828 318.503905 L 100.368791 319.068205 L 128.191275 319.530214 L 165.28792 319.898852 L 280.552497 320.880435 L 318.974023 321.511539 L 356.070669 322.343372 L 393.167314 323.395234 L 434.2386 324.789903 L 483.259167 326.693892 L 630.320869 332.580265 L 667.417514 333.749952 L 683.316077 334.177681 
      L 683.316077 225.230767 
      L 681.991197 225.435261 L 670.067275 227.158839 L 658.143353 228.663241 L 646.219431 229.937135 L 634.29551 230.970795 L 623.696468 231.681376 L 613.097426 232.191242 L 602.498385 232.496978 L 591.899343 232.596293 L 581.300302 232.488023 L 570.70126 232.17214 L 560.102219 231.649747 L 549.503177 230.923075 L 538.904135 229.99546 L 526.980214 228.717259 L 515.056292 227.198275 L 503.13237 225.448052 L 491.208448 223.477693 L 477.959647 221.045574 L 464.710845 218.376506 L 450.137162 215.192188 L 435.56348 211.777424 L 418.340038 207.489622 L 398.466835 202.274192 L 370.644351 194.659783 L 330.897945 183.623696 L 308.374982 177.540064 L 289.826659 172.7397 L 273.928096 168.830585 L 259.354414 165.448751 L 244.780732 162.287281 L 231.53193 159.624383 L 218.283128 157.178469 L 205.034326 154.962328 L 191.785524 152.986082 L 179.861603 151.418673 L 167.937681 150.054849 L 156.013759 148.895946 L 144.089837 147.941282 L 130.841035 147.116689 L 117.592233 146.534072 L 104.343431 146.183518 L 91.09463 146.051955 L 76.520947 146.140756 L 60.622385 146.486943 L 43.398942 147.110734 L 22.200859 148.148997
      z" clip-path="url(#plot_clip)"/>

    <!-- Phase Boundary Lines (Vertical Dashed) -->
    <line class="phase-divider" x1="148.481294" y1="7.2" x2="148.481294" y2="388.2"/>
    <line class="phase-divider" x1="349.044338" y1="7.2" x2="349.044338" y2="388.2"/>

    <!-- Corridor Upper Bound (Crimson Dashed) -->
    <path class="corridor-bound" d="
      M 22.200859 315.941379 
      L 39.424302 316.956627 L 57.972625 317.811787 L 77.845828 318.503905 L 100.368791 319.068205 L 128.191275 319.530214 L 165.28792 319.898852 L 280.552497 320.880435 L 318.974023 321.511539 L 356.070669 322.343372 L 393.167314 323.395234 L 434.2386 324.789903 L 483.259167 326.693892 L 630.320869 332.580265 L 667.417514 333.749952 L 683.316077 334.177681
    " clip-path="url(#plot_clip)"/>

    <!-- Corridor Lower Bound (Crimson Dashed) -->
    <path class="corridor-bound" d="
      M 22.200859 148.148997 
      L 43.398942 147.110734 L 60.622385 146.486943 L 76.520947 146.140756 L 91.09463 146.051955 L 104.343431 146.183518 L 117.592233 146.534072 L 130.841035 147.116689 L 144.089837 147.941282 L 156.013759 148.895946 L 167.937681 150.054849 L 179.861603 151.418673 L 191.785524 152.986082 L 205.034326 154.962328 L 218.283128 157.178469 L 231.53193 159.624383 L 244.780732 162.287281 L 259.354414 165.448751 L 273.928096 168.830585 L 289.826659 172.7397 L 308.374982 177.540064 L 330.897945 183.623696 L 370.644351 194.659783 L 398.466835 202.274192 L 418.340038 207.489622 L 435.56348 211.777424 L 450.137162 215.192188 L 464.710845 218.376506 L 477.959647 221.045574 L 491.208448 223.477693 L 503.13237 225.448052 L 515.056292 227.198275 L 526.980214 228.717259 L 538.904135 229.99546 L 549.503177 230.923075 L 560.102219 231.649747 L 570.70126 232.17214 L 581.300302 232.488023 L 591.899343 232.596293 L 602.498385 232.496978 L 613.097426 232.191242 L 623.696468 231.681376 L 634.29551 230.970795 L 646.219431 229.937135 L 658.143353 228.663241 L 670.067275 227.158839 L 681.991197 225.435261 L 683.316077 225.230767
    " clip-path="url(#plot_clip)"/>

    <!-- Trajectory Curves -->
    <!-- 1. Admissible Trajectory (Teal) -->
    <path class="traj-admissible" d="
      M 22.200859 237.113793 
      L 39.424302 238.273477 L 59.297505 239.38266 L 88.444869 240.762939 L 132.165916 242.841543 L 154.688879 244.145839 L 174.562082 245.521267 L 193.110405 247.035343 L 210.333847 248.662707 L 227.55729 250.515333 L 244.780732 252.597005 L 262.004175 254.903842 L 280.552497 257.626854 L 299.10082 260.574721 L 320.298903 264.178055 L 345.471627 268.701884 L 390.517554 277.091972 L 420.989798 282.650481 L 442.187881 286.303857 L 460.736204 289.281943 L 477.959647 291.817134 L 493.858209 293.927033 L 508.431891 295.643685 L 523.005573 297.134259 L 537.579255 298.384161 L 550.828057 299.301913 L 564.076859 300.005107 L 577.325661 300.48996 L 590.574463 300.755144 L 603.823265 300.801809 L 617.072067 300.633591 L 630.320869 300.256569 L 644.894551 299.610851 L 659.468233 298.737231 L 675.366796 297.545042 L 683.316077 296.86334
    " clip-path="url(#plot_clip)"/>

    <!-- 2. Overshoot Trajectory (Purple) -->
    <path class="traj-overshoot" d="
      M 22.200859 322.510328 
      L 103.018551 322.40796 L 113.617593 322.190199 L 120.241994 321.858375 L 125.541515 321.360451 L 129.516155 320.75324 L 132.165916 320.18189 L 134.815676 319.428591 L 137.465436 318.438257 L 140.115197 317.14122 L 142.764957 315.45089 L 145.414718 313.262178 L 146.739598 311.94302 L 148.064478 310.451693 L 149.389358 308.770481 L 150.714238 306.881225 L 152.039119 304.765754 L 153.363999 302.406443 L 154.688879 299.786896 L 156.013759 296.892779 L 157.338639 293.712753 L 159.9884 286.470812 L 162.63816 278.069523 L 165.28792 268.627043 L 169.262561 253.070028 L 175.886962 226.648529 L 178.536722 217.081425 L 181.186483 208.530184 L 183.836243 201.129268 L 186.486004 194.900451 L 187.810884 192.208167 L 189.135764 189.780224 L 190.460644 187.600697 L 191.785524 185.652216 L 193.110405 183.9167 L 194.435285 182.375938 L 195.760165 181.012059 L 198.409925 178.74709 L 201.059686 176.996109 L 203.709446 175.651491 L 206.359207 174.624219 L 209.008967 173.842469 L 211.658727 173.249336 L 215.633368 172.618782 L 219.608008 172.204926 L 224.907529 171.86636 L 232.85681 171.612315 L 246.105612 171.469355 L 279.227617 171.425415 L 683.316077 171.424138
    " clip-path="url(#plot_clip)"/>

    <!-- 3. Undershoot Trajectory (Blue) -->
    <path class="traj-undershoot" d="
      M 22.200859 355.355172 
      L 683.316077 345.501724
    " clip-path="url(#plot_clip)"/>

    <!-- Bounding Axis Frame -->
    <rect class="axis-border" x="22.200859" y="7.2" width="661.115218" height="381.0"/>

    <!-- Header Titles & Phase Annotations -->
    <!-- Phase I -->
    <g text-anchor="middle">
      <text x="85.341076" y="28" class="phase-title" fill="#a91d33">Phase I</text>
      <text x="85.341076" y="44" class="phase-sub">0 - 48 h</text>
    </g>

    <!-- Phase II -->
    <g text-anchor="middle">
      <text x="248.762816" y="28" class="phase-title" fill="#1d7a6d">Phase II</text>
      <text x="248.762816" y="44" class="phase-sub">D3 - D7</text>
    </g>

    <!-- Phase III -->
    <g text-anchor="middle">
      <text x="516.180207" y="28" class="phase-title" fill="#1f5aa8">Phase III</text>
      <text x="516.180207" y="44" class="phase-sub">&gt; D14</text>
    </g>

    <!-- Curve Curve Labels -->
    <text x="393.613903" y="270.0" class="traj-label" fill="#1d7a6d">admissible</text>
    <text x="185.622599" y="310.0" class="traj-label" fill="#6b4fa8">overshoot</text>
    <text x="482.753033" y="362.0" class="traj-label" fill="#1f5aa8">undershoot</text>

    <!-- Axis Titles -->
    <text x="352.758468" y="402.0" class="axis-label" text-anchor="middle">Time (days)</text>
    <text x="14.0" y="197.7" class="axis-label" text-anchor="middle" transform="rotate(-90 14.0 197.7)">Ion Concentration / Interfacial Flux J</text>

  </g>
</svg>
