<svg xmlns="http://www.w3.org/2000/svg" width="1020" height="800" viewBox="0 0 1020 800" font-family="Arial,'DejaVu Sans',sans-serif" role="img" aria-labelledby="t d" xmlns:c2pa="http://c2pa.org/manifest"><metadata><c2pa:manifest>AAAWgmp1bWIAAAAeanVtZGMycGEAEQAQgAAAqgA4m3EDYzJwYQAAABZcanVtYgAAAEdqdW1kYzJtYQARABCAAACqADibcQN1cm46YzJwYTpkYzc4NjExZS05Mjc4LTQwZDItYmE3ZC01ODNmMjliNmMyMGYAAAADl2p1bWIAAAApanVtZGMyYXMAEQAQgAAAqgA4m3EDYzJwYS5hc3NlcnRpb25zAAAAALxqdW1iAAAARGp1bWRjYm9yABEAEIAAAKoAOJtxE2MycGEuaW5ncmVkaWVudC52MwAAAAAYYzJzaNmUGrDmz+i4Zz9Ov5jYdYYAAABwY2JvcqNpZGM6Zm9ybWF0bWltYWdlL3N2Zyt4bWxqaW5zdGFuY2VJRHgseG1wOmlpZDo3YThhZjBkMy1mYjU3LTQ5MjQtOTAzYy04MzNhMGE0OTM5MjdscmVsYXRpb25zaGlwaHBhcmVudE9mAAAB4mp1bWIAAABBanVtZGNib3IAEQAQgAAAqgA4m3ETYzJwYS5hY3Rpb25zLnYyAAAAABhjMnNo4OhEnQZ6ThsUxJUNc4ljfwAAAZljYm9yomdhY3Rpb25zgqJmYWN0aW9ua2MycGEub3BlbmVkanBhcmFtZXRlcnOha2luZ3JlZGllbnRzgaJjdXJseC1zZWxmI2p1bWJmPWMycGEuYXNzZXJ0aW9ucy9jMnBhLmluZ3JlZGllbnQudjNkaGFzaFgg9+ZwtFEs+j78NPNeAepDt1HAhjJbqwFMUh+UvkcHf2GkZmFjdGlvbngdY29tLmFudGhyb3BpYy5jbGF1ZGUucHJvdmlkZWRqcGFyYW1ldGVyc6F4H2NvbS5hbnRocm9waWMub3JpZ2luLWNvbmZpZGVuY2VndW5rbm93bmtkZXNjcmlwdGlvbnhmQ2xhdWRlIHByb3ZpZGVkIHRoaXMgZmlsZSBhdCB0aGUgcmVxdWVzdCBvZiBhIHVzZXIgYW5kIG1heSBoYXZlIGNyZWF0ZWQgb3IgbW9kaWZpZWQgdGhlIGZpbGUgY29udGVudHMubXNvZnR3YXJlQWdlbnShZG5hbWVmQ2xhdWRlcmFsbEFjdGlvbnNJbmNsdWRlZPUAAADIanVtYgAAAEBqdW1kY2JvcgARABCAAACqADibcRNjMnBhLmhhc2guZGF0YQAAAAAYYzJzaLF98Dp8PsB2WnbdYmTOTW0AAACAY2JvcqVjYWxnZnNoYTI1NmNwYWRNAAAAAAAAAAAAAAAAAGRoYXNoWCBpR6YZ0JzdbwWYD63fcotI75kx1SOou+hYQ90U0QpLcmRuYW1lbmp1bWJmIG1hbmlmZXN0amV4Y2x1c2lvbnOBomVzdGFydBjmZmxlbmd0aBkeBAAAAj5qdW1iAAAAJ2p1bWRjMmNsABEAEIAAAKoAOJtxA2MycGEuY2xhaW0udjIAAAACD2Nib3KlY2FsZ2ZzaGEyNTZpc2lnbmF0dXJleE1zZWxmI2p1bWJmPS9jMnBhL3VybjpjMnBhOmRjNzg2MTFlLTkyNzgtNDBkMi1iYTdkLTU4M2YyOWI2YzIwZi9jMnBhLnNpZ25hdHVyZWppbnN0YW5jZUlEeCx4bXA6aWlkOmQ2ZjA4YTY4LTIyZTgtNGIwZC05NjQ2LTU2NjBmOWM1ZmRhZnJjcmVhdGVkX2Fzc2VydGlvbnODomN1cmx4LXNlbGYjanVtYmY9YzJwYS5hc3NlcnRpb25zL2MycGEuaW5ncmVkaWVudC52M2RoYXNoWCD35nC0USz6Pvw0814B6kO3UcCGMlurAUxSH5S+Rwd/YaJjdXJseCpzZWxmI2p1bWJmPWMycGEuYXNzZXJ0aW9ucy9jMnBhLmFjdGlvbnMudjJkaGFzaFggwO5V6wmPKjA60A0orH7T15OjH4nx8PKny5HVcfK/jHiiY3VybHgpc2VsZiNqdW1iZj1jMnBhLmFzc2VydGlvbnMvYzJwYS5oYXNoLmRhdGFkaGFzaFggRhIdJjHRnBw2aAZC7jk1OIfqk8JWh9rUCReAVX3/mE50Y2xhaW1fZ2VuZXJhdG9yX2luZm+jZG5hbWVvQW50aHJvcGljIEZpbGVzZ3ZlcnNpb25lMS4wLjBrc3BlY1ZlcnNpb25lMi40LjAAABA4anVtYgAAAChqdW1kYzJjcwARABCAAACqADibcQNjMnBhLnNpZ25hdHVyZQAAABAIY2JvctKEWQISogEmGCFZAgowggIGMIIBjaADAgECAhRA5aAK7sI50L64g/oGQgU9Z1UTADAKBggqhkjOPQQDAzBJMRcwFQYDVQQKEw5BbnRocm9waWMsIFBCQzEuMCwGA1UEAxMlQW50aHJvcGljIENvbnRlbnQgQ3JlZGVudGlhbHMgUm9vdCBDQTAeFw0yNjA4MDcxODQzNTZaFw0yODA4MDYxOTQzNTZaMEQxFzAVBgNVBAoTDkFudGhyb3BpYywgUEJDMSkwJwYDVQQDEyBBbnRocm9waWMgQ2xhdWRlIENvbnRlbnQgU2lnbmluZzBZMBMGByqGSM49AgEGCCqGSM49AwEHA0IABJh6CmvLUBgFFNU0vUKlOVtE6djd17L5SuwX0LemFisBM3dkd/3cyjxFA3Qo5S46fX0/ihY0VZ7mfb9KF703t5OjWDBWMA4GA1UdDwEB/wQEAwIHgDAVBgNVHSUEDjAMBgorBgEEAYPoXgIBMAwGA1UdEwEB/wQCMAAwHwYDVR0jBBgwFoAUzlHiBIFOZFsj+OPEz5o+nMHXXMIwCgYIKoZIzj0EAwMDZwAwZAIwMXMdFJ4BetLLVY7ORuE9noqbbAZOZn/aArXyTwFAZfKrPzxF2vPoJNf1+UCdg1XGAjBwX1zd9WGqYkqmL5SFqw1QySjr1zJfpJM9+1rdDwSPLMOPOjKuiXjoU/pUUeG9RwmhY3BhZFkNngAAAAAAAAAAAAAAAAAAAAAAAAAAAAAAAAAAAAAAAAAAAAAAAAAAAAAAAAAAAAAAAAAAAAAAAAAAAAAAAAAAAAAAAAAAAAAAAAAAAAAAAAAAAAAAAAAAAAAAAAAAAAAAAAAAAAAAAAAAAAAAAAAAAAAAAAAAAAAAAAAAAAAAAAAAAAAAAAAAAAAAAAAAAAAAAAAAAAAAAAAAAAAAAAAAAAAAAAAAAAAAAAAAAAAAAAAAAAAAAAAAAAAAAAAAAAAAAAAAAAAAAAAAAAAAAAAAAAAAAAAAAAAAAAAAAAAAAAAAAAAAAAAAAAAAAAAAAAAAAAAAAAAAAAAAAAAAAAAAAAAAAAAAAAAAAAAAAAAAAAAAAAAAAAAAAAAAAAAAAAAAAAAAAAAAAAAAAAAAAAAAAAAAAAAAAAAAAAAAAAAAAAAAAAAAAAAAAAAAAAAAAAAAAAAAAAAAAAAAAAAAAAAAAAAAAAAAAAAAAAAAAAAAAAAAAAAAAAAAAAAAAAAAAAAAAAAAAAAAAAAAAAAAAAAAAAAAAAAAAAAAAAAAAAAAAAAAAAAAAAAAAAAAAAAAAAAAAAAAAAAAAAAAAAAAAAAAAAAAAAAAAAAAAAAAAAAAAAAAAAAAAAAAAAAAAAAAAAAAAAAAAAAAAAAAAAAAAAAAAAAAAAAAAAAAAAAAAAAAAAAAAAAAAAAAAAAAAAAAAAAAAAAAAAAAAAAAAAAAAAAAAAAAAAAAAAAAAAAAAAAAAAAAAAAAAAAAAAAAAAAAAAAAAAAAAAAAAAAAAAAAAAAAAAAAAAAAAAAAAAAAAAAAAAAAAAAAAAAAAAAAAAAAAAAAAAAAAAAAAAAAAAAAAAAAAAAAAAAAAAAAAAAAAAAAAAAAAAAAAAAAAAAAAAAAAAAAAAAAAAAAAAAAAAAAAAAAAAAAAAAAAAAAAAAAAAAAAAAAAAAAAAAAAAAAAAAAAAAAAAAAAAAAAAAAAAAAAAAAAAAAAAAAAAAAAAAAAAAAAAAAAAAAAAAAAAAAAAAAAAAAAAAAAAAAAAAAAAAAAAAAAAAAAAAAAAAAAAAAAAAAAAAAAAAAAAAAAAAAAAAAAAAAAAAAAAAAAAAAAAAAAAAAAAAAAAAAAAAAAAAAAAAAAAAAAAAAAAAAAAAAAAAAAAAAAAAAAAAAAAAAAAAAAAAAAAAAAAAAAAAAAAAAAAAAAAAAAAAAAAAAAAAAAAAAAAAAAAAAAAAAAAAAAAAAAAAAAAAAAAAAAAAAAAAAAAAAAAAAAAAAAAAAAAAAAAAAAAAAAAAAAAAAAAAAAAAAAAAAAAAAAAAAAAAAAAAAAAAAAAAAAAAAAAAAAAAAAAAAAAAAAAAAAAAAAAAAAAAAAAAAAAAAAAAAAAAAAAAAAAAAAAAAAAAAAAAAAAAAAAAAAAAAAAAAAAAAAAAAAAAAAAAAAAAAAAAAAAAAAAAAAAAAAAAAAAAAAAAAAAAAAAAAAAAAAAAAAAAAAAAAAAAAAAAAAAAAAAAAAAAAAAAAAAAAAAAAAAAAAAAAAAAAAAAAAAAAAAAAAAAAAAAAAAAAAAAAAAAAAAAAAAAAAAAAAAAAAAAAAAAAAAAAAAAAAAAAAAAAAAAAAAAAAAAAAAAAAAAAAAAAAAAAAAAAAAAAAAAAAAAAAAAAAAAAAAAAAAAAAAAAAAAAAAAAAAAAAAAAAAAAAAAAAAAAAAAAAAAAAAAAAAAAAAAAAAAAAAAAAAAAAAAAAAAAAAAAAAAAAAAAAAAAAAAAAAAAAAAAAAAAAAAAAAAAAAAAAAAAAAAAAAAAAAAAAAAAAAAAAAAAAAAAAAAAAAAAAAAAAAAAAAAAAAAAAAAAAAAAAAAAAAAAAAAAAAAAAAAAAAAAAAAAAAAAAAAAAAAAAAAAAAAAAAAAAAAAAAAAAAAAAAAAAAAAAAAAAAAAAAAAAAAAAAAAAAAAAAAAAAAAAAAAAAAAAAAAAAAAAAAAAAAAAAAAAAAAAAAAAAAAAAAAAAAAAAAAAAAAAAAAAAAAAAAAAAAAAAAAAAAAAAAAAAAAAAAAAAAAAAAAAAAAAAAAAAAAAAAAAAAAAAAAAAAAAAAAAAAAAAAAAAAAAAAAAAAAAAAAAAAAAAAAAAAAAAAAAAAAAAAAAAAAAAAAAAAAAAAAAAAAAAAAAAAAAAAAAAAAAAAAAAAAAAAAAAAAAAAAAAAAAAAAAAAAAAAAAAAAAAAAAAAAAAAAAAAAAAAAAAAAAAAAAAAAAAAAAAAAAAAAAAAAAAAAAAAAAAAAAAAAAAAAAAAAAAAAAAAAAAAAAAAAAAAAAAAAAAAAAAAAAAAAAAAAAAAAAAAAAAAAAAAAAAAAAAAAAAAAAAAAAAAAAAAAAAAAAAAAAAAAAAAAAAAAAAAAAAAAAAAAAAAAAAAAAAAAAAAAAAAAAAAAAAAAAAAAAAAAAAAAAAAAAAAAAAAAAAAAAAAAAAAAAAAAAAAAAAAAAAAAAAAAAAAAAAAAAAAAAAAAAAAAAAAAAAAAAAAAAAAAAAAAAAAAAAAAAAAAAAAAAAAAAAAAAAAAAAAAAAAAAAAAAAAAAAAAAAAAAAAAAAAAAAAAAAAAAAAAAAAAAAAAAAAAAAAAAAAAAAAAAAAAAAAAAAAAAAAAAAAAAAAAAAAAAAAAAAAAAAAAAAAAAAAAAAAAAAAAAAAAAAAAAAAAAAAAAAAAAAAAAAAAAAAAAAAAAAAAAAAAAAAAAAAAAAAAAAAAAAAAAAAAAAAAAAAAAAAAAAAAAAAAAAAAAAAAAAAAAAAAAAAAAAAAAAAAAAAAAAAAAAAAAAAAAAAAAAAAAAAAAAAAAAAAAAAAAAAAAAAAAAAAAAAAAAAAAAAAAAAAAAAAAAAAAAAAAAAAAAAAAAAAAAAAAAAAAAAAAAAAAAAAAAAAAAAAAAAAAAAAAAAAAAAAAAAAAAAAAAAAAAAAAAAAAAAAAAAAAAAAAAAAAAAAAAAAAAAAAAAAAAAAAAAAAAAAAAAAAAAAAAAAAAAAAAAAAAAAAAAAAAAAAAAAAAAAAAAAAAAAAAAAAAAAAAAAAAAAAAAAAAAAAAAAAAAAAAAAAAAAAAAAAAAAAAAAAAAAAAAAAAAAAAAAAAAAAAAAAAAAAAAAAAAAAAAAAAAAAAAAAAAAAAAAAAAAAAAAAAAAAAAAAAAAAAAAAAAAAAAAAAAAAAAAAAAAAAAAAAAAAAAAAAAAAAAAAAAAAAAAAAAAAAAAAAAAAAAAAAAAAAAAAAAAAAAAAAAAAAAAAAAAAAAAAAAAAAAAAAAAAAAAAAAAAAAAAAAAAAAAAAAAAAAAAAAAAAAAAAAAAAAAAAAAAAAAAAAAAAAAAAAAAAAAAAAAAAAAAAAAAAAAAAAAAAAAAAAAAAAAAAAAAAAAAAAAAAAAAAAAAAAAAAAAAAAAAAAAAAAAAAAAAAAAAAAAAAAAAAAAAAAAAAAAAAAAAAAAAAAAAAAAAAAAAAAAAAAAAAAAAAAAAAAAAAAAAAAAAAAAAAAAAAAAAAAAAAAAAAAAAAAAAAAAAAAAAAAAAAAAAAAAAAAAAAAAAAAAAAAAAAAAAAAAAAAAAAAAAAAAAAAAAAAAAAAAAAAAAAAAAAAAAAAAAAAAAAAAAAAAAAAAAAAAAAAAAAAAAAAAAAAAAAAAAAAAAAAAAAAAAAAAAAAAAAAAAAAAAAAAAAAAAAAAAAAAAAAAAAAAAAAAAAAAAAAAAAAAAAAAAAAAAAAAAAAAAAAAAAAAAAAAAAAAAAAAAAAAAAAAAAAAAAAAAAAAAAAAAAAAAAAAAAAAAAAAAAAAAAAAAAAAAAAAAAAAAAAAAAAAAAAAAAAAAAAAAAAAAAAAAAAAAAAAAAAAAAAAAAAAAAAAAAAAAAAAAAAAAAAAAAAAAAAAAAAAAAAAAAAAAAAAAAAAAAAAAAAAAAAAAAAAAAAAAAAAAAAAAAAAAAAAAAAAAAAAAAAAAAAAAAAAAAAAAAAAAAAAAAAAAAAAAAAAAAAAAAAAAAAAAAAAAAAAAAAAAAAAAAAAAAAAAAAAAAAAAAAAAAAAAAAAAAAAAAAAAAAAAAAAAAAAAAAAAAAAAAAAAAAAAAAAAAAAAAAAAAAAAAAAAAAAAAAAAAAAAAAAAAAAAAAAAAAAAAAAAAAAAAAAAAAAAAAAAAAAAAAAAAAAAAAAAAAAAAAAAAAAAAAAAAAAAAAAAAAAAAAAAAAAAAAAAAAAAAAAAAAAAAAAAAAAAAAAAAAAAAAAAAAAAAAAAAAAAAAAAAAAAAAAAAAAAAAAAAAAAAAAAAAAAAAAAAAAAAAAAAAAAAAAAAAAAAAAAAAAAAAAAAAAAAAAAAAAAAAAAAAAAAAAAAAAAAAAAAAAAAAAAAAAAAAAAAAAAAAAAAAAAAAAAAAAAAAAAAAAAAAAAAAAAAAAAAAAAAAAAAAAAAAAAAAAAAAAAAAAAAAAAAAAAAAAAAAAAAAAAAAAAAAAAAAAAAAAAAAAAAAAAAAAAAAAAAAAAAAAAAAAAAAAAAAAAAAAAAAAAAAAAAAAAAAAAAAAAAAAAAAAAAAAAAAAAAAAAAAAAAAAAAAAAAAAAAAAAAAAAAAAAAAAAAAAAAAAAAAAAAAAAAAAAAAAAAAAAAAAAAAAAAAAAAAAAAAAAAAAAAAAAAAAAAAAAAAAAAAAAAAAAAAAAAAAAPZYQNtFIUp8PCt3ZsX5YbIVlnkVwlDeAkJ+D07pjQsfoodR4STQjPH4b+47x15MqURzs4X8EFkcq0e5Pvv2fxJdPZk=</c2pa:manifest></metadata>
<title id="t">Thermal programming of phase architecture, dissolution, pH and cytocompatibility (700 vs 1100 °C)</title>
<desc id="d">Four panels: A phase composition and bulk density vs temperature; B mass loss vs immersion time with Korsmeyer-Peppas fits; C interfacial pH; D cell viability vs extract concentration.</desc>
<style>
:root{--bg:#fff;--fg:#1f2328;--mut:#656d76;--grid:#e6e9ed;--card:#f6f8fa;--line:#d0d7de;--dens:#303840;--ok:#009e73}
@media (prefers-color-scheme:dark){:root{--bg:#0d1117;--fg:#e6edf3;--mut:#8b949e;--grid:#21262d;--card:#161b22;--line:#30363d;--dens:#e6edf3}}
text{fill:var(--fg)} .m{fill:var(--mut)} .b{font-weight:700}
</style>
<defs><linearGradient id="hdr" x1="0" x2="1"><stop offset="0" stop-color="#d55e00"/><stop offset="1" stop-color="#0072b2"/></linearGradient></defs>
<rect width="1020" height="800" fill="var(--bg)"/>
<rect x="30" y="26" width="5" height="50" rx="2.5" fill="url(#hdr)"/>
<text x="46" y="48" font-size="21" font-weight="700">Kinetic Blueprint · Thermal Programming of Phase Architecture and Ion Release</text>
<text x="46" y="68" font-size="12.5" class="m">Ca–Si–P–O bioactive glass-ceramics · 700 °C vs 1100 °C processing · phase assemblage → dissolution → interfacial pH → cytocompatibility</text>

<line x1="640" y1="88" x2="664" y2="88" stroke="#d55e00" stroke-width="2.5"/><circle cx="652" cy="88" r="4" fill="#d55e00"/><text x="672" y="92" font-size="12.5" font-weight="600">700 °C</text>
<line x1="740" y1="88" x2="764" y2="88" stroke="#0072b2" stroke-width="2.5"/><circle cx="752" cy="88" r="4" fill="#0072b2"/><text x="772" y="92" font-size="12.5" font-weight="600">1100 °C</text>
<text x="840" y="92" font-size="11" class="m">(panels B–D)</text>
<rect x="90" y="140" width="340" height="200" fill="var(--card)" fill-opacity=".5"/>
<line x1="90" y1="340.0" x2="430" y2="340.0" stroke="var(--grid)"/><text x="82" y="344.0" font-size="11" text-anchor="end" class="m">0</text>
<line x1="90" y1="300.0" x2="430" y2="300.0" stroke="var(--grid)"/><text x="82" y="304.0" font-size="11" text-anchor="end" class="m">20</text>
<line x1="90" y1="260.0" x2="430" y2="260.0" stroke="var(--grid)"/><text x="82" y="264.0" font-size="11" text-anchor="end" class="m">40</text>
<line x1="90" y1="220.0" x2="430" y2="220.0" stroke="var(--grid)"/><text x="82" y="224.0" font-size="11" text-anchor="end" class="m">60</text>
<line x1="90" y1="180.0" x2="430" y2="180.0" stroke="var(--grid)"/><text x="82" y="184.0" font-size="11" text-anchor="end" class="m">80</text>
<line x1="90" y1="140.0" x2="430" y2="140.0" stroke="var(--grid)"/><text x="82" y="144.0" font-size="11" text-anchor="end" class="m">100</text>
<path d="M90 140 V340 H430" fill="none" stroke="var(--fg)" stroke-width="1.2"/>
<text x="260.0" y="376" font-size="12.5" font-weight="600" text-anchor="middle">Sintering temperature (°C)</text>
<text transform="translate(46 240.0) rotate(-90)" font-size="12.5" font-weight="600" text-anchor="middle">Phase fraction (wt%)</text>
<rect x="90" y="98" width="22" height="22" rx="5" fill="url(#hdr)"/><text x="101" y="114" font-size="13" font-weight="700" text-anchor="middle" style="fill:#fff">A</text>
<text x="120" y="114" font-size="14" font-weight="700">Processing → phase architecture</text>
<text x="90" y="132" font-size="11.5" class="m">Amorphous 52 → 23 wt%; whitlockite 8 → 43 wt%</text>
<rect x="100.2" y="235.6" width="47.6" height="104.4" fill="#8c8c8c"/>
<text x="124.0" y="291.8" font-size="10.5" font-weight="600" text-anchor="middle" style="fill:#fff">52</text>
<rect x="100.2" y="227.6" width="47.6" height="8.0" fill="#009e73"/>
<rect x="100.2" y="211.6" width="47.6" height="16.0" fill="#e69f00"/>
<text x="124.0" y="223.6" font-size="10.5" font-weight="600" text-anchor="middle" style="fill:#1f2328">8</text>
<rect x="100.2" y="140.0" width="47.6" height="71.6" fill="#56b4e9"/>
<text x="124.0" y="179.8" font-size="10.5" font-weight="600" text-anchor="middle" style="fill:#1f2328">36</text>
<text x="124.0" y="356" font-size="11" text-anchor="middle" class="m">700</text>
<rect x="168.2" y="220.8" width="47.6" height="119.2" fill="#8c8c8c"/>
<text x="192.0" y="284.4" font-size="10.5" font-weight="600" text-anchor="middle" style="fill:#fff">60</text>
<rect x="168.2" y="200.6" width="47.6" height="20.2" fill="#009e73"/>
<text x="192.0" y="214.7" font-size="10.5" font-weight="600" text-anchor="middle" style="fill:#fff">10</text>
<rect x="168.2" y="153.4" width="47.6" height="47.2" fill="#e69f00"/>
<text x="192.0" y="181.0" font-size="10.5" font-weight="600" text-anchor="middle" style="fill:#1f2328">24</text>
<rect x="168.2" y="140.0" width="47.6" height="13.4" fill="#56b4e9"/>
<text x="192.0" y="356" font-size="11" text-anchor="middle" class="m">800</text>
<rect x="236.2" y="268.0" width="47.6" height="72.0" fill="#8c8c8c"/>
<text x="260.0" y="308.0" font-size="10.5" font-weight="600" text-anchor="middle" style="fill:#fff">36</text>
<rect x="236.2" y="248.8" width="47.6" height="19.2" fill="#009e73"/>
<text x="260.0" y="262.4" font-size="10.5" font-weight="600" text-anchor="middle" style="fill:#fff">10</text>
<rect x="236.2" y="184.8" width="47.6" height="64.0" fill="#e69f00"/>
<text x="260.0" y="220.8" font-size="10.5" font-weight="600" text-anchor="middle" style="fill:#1f2328">32</text>
<rect x="236.2" y="140.0" width="47.6" height="44.8" fill="#56b4e9"/>
<text x="260.0" y="166.4" font-size="10.5" font-weight="600" text-anchor="middle" style="fill:#1f2328">22</text>
<text x="260.0" y="356" font-size="11" text-anchor="middle" class="m">900</text>
<rect x="304.2" y="278.4" width="47.6" height="61.6" fill="#8c8c8c"/>
<text x="328.0" y="313.2" font-size="10.5" font-weight="600" text-anchor="middle" style="fill:#fff">31</text>
<rect x="304.2" y="249.6" width="47.6" height="28.8" fill="#009e73"/>
<text x="328.0" y="268.0" font-size="10.5" font-weight="600" text-anchor="middle" style="fill:#fff">14</text>
<rect x="304.2" y="180.4" width="47.6" height="69.2" fill="#e69f00"/>
<text x="328.0" y="219.0" font-size="10.5" font-weight="600" text-anchor="middle" style="fill:#1f2328">35</text>
<rect x="304.2" y="140.0" width="47.6" height="40.4" fill="#56b4e9"/>
<text x="328.0" y="164.2" font-size="10.5" font-weight="600" text-anchor="middle" style="fill:#1f2328">20</text>
<text x="328.0" y="356" font-size="11" text-anchor="middle" class="m">1000</text>
<rect x="372.2" y="294.8" width="47.6" height="45.2" fill="#8c8c8c"/>
<text x="396.0" y="321.4" font-size="10.5" font-weight="600" text-anchor="middle" style="fill:#fff">23</text>
<rect x="372.2" y="251.4" width="47.6" height="43.4" fill="#009e73"/>
<text x="396.0" y="277.1" font-size="10.5" font-weight="600" text-anchor="middle" style="fill:#fff">22</text>
<rect x="372.2" y="164.8" width="47.6" height="86.6" fill="#e69f00"/>
<text x="396.0" y="212.1" font-size="10.5" font-weight="600" text-anchor="middle" style="fill:#1f2328">43</text>
<rect x="372.2" y="140.0" width="47.6" height="24.8" fill="#56b4e9"/>
<text x="396.0" y="156.4" font-size="10.5" font-weight="600" text-anchor="middle" style="fill:#1f2328">12</text>
<text x="396.0" y="356" font-size="11" text-anchor="middle" class="m">1100</text>
<text x="438" y="344.0" font-size="11" class="m">1.8</text><line x1="430" y1="340.0" x2="434" y2="340.0" stroke="var(--mut)"/>
<text x="438" y="277.3" font-size="11" class="m">2.2</text><line x1="430" y1="273.3" x2="434" y2="273.3" stroke="var(--mut)"/>
<text x="438" y="210.7" font-size="11" class="m">2.6</text><line x1="430" y1="206.7" x2="434" y2="206.7" stroke="var(--mut)"/>
<text x="438" y="144.0" font-size="11" class="m">3.0</text><line x1="430" y1="140.0" x2="434" y2="140.0" stroke="var(--mut)"/>
<path d="M430 140 V340" stroke="var(--fg)" stroke-width="1.2"/>
<text transform="translate(478 240.0) rotate(-90)" font-size="12.5" font-weight="600" text-anchor="middle">Bulk density (g/cm³)</text>
<polyline points="124.0,303.3 192.0,253.3 260.0,205.0 328.0,173.3 396.0,176.7" fill="none" stroke="var(--bg)" stroke-width="4.5"/><polyline points="124.0,303.3 192.0,253.3 260.0,205.0 328.0,173.3 396.0,176.7" fill="none" stroke="var(--dens)" stroke-width="2"/>
<path d="M124.0 297.3 L130.0 303.3 L124.0 309.3 L118.0 303.3Z" fill="var(--dens)" stroke="var(--bg)" stroke-width="1.3"/>
<path d="M192.0 247.3 L198.0 253.3 L192.0 259.3 L186.0 253.3Z" fill="var(--dens)" stroke="var(--bg)" stroke-width="1.3"/>
<path d="M260.0 199.0 L266.0 205.0 L260.0 211.0 L254.0 205.0Z" fill="var(--dens)" stroke="var(--bg)" stroke-width="1.3"/>
<path d="M328.0 167.3 L334.0 173.3 L328.0 179.3 L322.0 173.3Z" fill="var(--dens)" stroke="var(--bg)" stroke-width="1.3"/>
<path d="M396.0 170.7 L402.0 176.7 L396.0 182.7 L390.0 176.7Z" fill="var(--dens)" stroke="var(--bg)" stroke-width="1.3"/>
<rect x="60" y="387" width="12" height="12" rx="2" fill="#8c8c8c"/><text x="77" y="397" font-size="11.5">Amorphous</text>
<rect x="157.4" y="387" width="12" height="12" rx="2" fill="#009e73"/><text x="174.4" y="397" font-size="11.5">Wollastonite</text>
<rect x="274.6" y="387" width="12" height="12" rx="2" fill="#e69f00"/><text x="291.6" y="397" font-size="11.5">Whitlockite</text>
<rect x="385.20000000000005" y="387" width="12" height="12" rx="2" fill="#56b4e9"/><text x="402.20000000000005" y="397" font-size="11.5">Hydroxyapatite</text>
<path d="M521.6 387 l6 6 -6 6 -6 -6Z" fill="var(--dens)"/><text x="535.6" y="397" font-size="11.5">Density</text>
<rect x="600" y="140" width="340" height="200" fill="var(--card)" fill-opacity=".5"/>
<line x1="600" y1="340.0" x2="940" y2="340.0" stroke="var(--grid)"/><text x="592" y="344.0" font-size="11" text-anchor="end" class="m">0</text>
<line x1="600" y1="303.6" x2="940" y2="303.6" stroke="var(--grid)"/><text x="592" y="307.6" font-size="11" text-anchor="end" class="m">2</text>
<line x1="600" y1="267.3" x2="940" y2="267.3" stroke="var(--grid)"/><text x="592" y="271.3" font-size="11" text-anchor="end" class="m">4</text>
<line x1="600" y1="230.9" x2="940" y2="230.9" stroke="var(--grid)"/><text x="592" y="234.9" font-size="11" text-anchor="end" class="m">6</text>
<line x1="600" y1="194.5" x2="940" y2="194.5" stroke="var(--grid)"/><text x="592" y="198.5" font-size="11" text-anchor="end" class="m">8</text>
<line x1="600" y1="158.2" x2="940" y2="158.2" stroke="var(--grid)"/><text x="592" y="162.2" font-size="11" text-anchor="end" class="m">10</text>
<text x="600.0" y="356" font-size="11" text-anchor="middle" class="m">0</text><line x1="600.0" y1="340" x2="600.0" y2="344" stroke="var(--mut)"/>
<text x="677.3" y="356" font-size="11" text-anchor="middle" class="m">5</text><line x1="677.3" y1="340" x2="677.3" y2="344" stroke="var(--mut)"/>
<text x="754.5" y="356" font-size="11" text-anchor="middle" class="m">10</text><line x1="754.5" y1="340" x2="754.5" y2="344" stroke="var(--mut)"/>
<text x="831.8" y="356" font-size="11" text-anchor="middle" class="m">15</text><line x1="831.8" y1="340" x2="831.8" y2="344" stroke="var(--mut)"/>
<text x="909.1" y="356" font-size="11" text-anchor="middle" class="m">20</text><line x1="909.1" y1="340" x2="909.1" y2="344" stroke="var(--mut)"/>
<path d="M600 140 V340 H940" fill="none" stroke="var(--fg)" stroke-width="1.2"/>
<text x="770.0" y="376" font-size="12.5" font-weight="600" text-anchor="middle">Immersion time (days)</text>
<text transform="translate(556 240.0) rotate(-90)" font-size="12.5" font-weight="600" text-anchor="middle">Mass loss (%)</text>
<rect x="600" y="98" width="22" height="22" rx="5" fill="url(#hdr)"/><text x="611" y="114" font-size="13" font-weight="700" text-anchor="middle" style="fill:#fff">B</text>
<text x="630" y="114" font-size="14" font-weight="700">Dissolution / transport</text>
<text x="600" y="132" font-size="11.5" class="m">21 d mass loss 10.2% vs 2.6% (≈4× faster at 700 °C)</text>
<polyline points="600.0,340.0 603.9,279.4 607.7,268.0 611.6,260.3 615.5,254.4 619.3,249.5 623.2,245.2 627.0,241.5 630.9,238.2 634.8,235.1 638.6,232.3 642.5,229.7 646.4,227.3 650.2,225.0 654.1,222.9 658.0,220.8 661.8,218.9 665.7,217.0 669.5,215.3 673.4,213.6 677.3,211.9 681.1,210.4 685.0,208.9 688.9,207.4 692.7,206.0 696.6,204.6 700.5,203.3 704.3,202.0 708.2,200.7 712.0,199.5 715.9,198.3 719.8,197.1 723.6,196.0 727.5,194.9 731.4,193.8 735.2,192.7 739.1,191.7 743.0,190.7 746.8,189.7 750.7,188.7 754.5,187.7 758.4,186.8 762.3,185.8 766.1,184.9 770.0,184.0 773.9,183.2 777.7,182.3 781.6,181.4 785.5,180.6 789.3,179.8 793.2,179.0 797.0,178.2 800.9,177.4 804.8,176.6 808.6,175.8 812.5,175.1 816.4,174.4 820.2,173.6 824.1,172.9 828.0,172.2 831.8,171.5 835.7,170.8 839.5,170.1 843.4,169.4 847.3,168.7 851.1,168.1 855.0,167.4 858.9,166.8 862.7,166.1 866.6,165.5 870.5,164.8 874.3,164.2 878.2,163.6 882.0,163.0 885.9,162.4 889.8,161.8 893.6,161.2 897.5,160.6 901.4,160.0 905.2,159.5 909.1,158.9 913.0,158.3 916.8,157.8 920.7,157.2 924.5,156.7" fill="none" stroke="#d55e00" stroke-width="2" stroke-linejoin="round"/>
<polyline points="600.0,340.0 603.9,336.3 607.7,334.5 611.6,333.0 615.5,331.7 619.3,330.6 623.2,329.5 627.0,328.6 630.9,327.6 634.8,326.8 638.6,325.9 642.5,325.1 646.4,324.4 650.2,323.6 654.1,322.9 658.0,322.2 661.8,321.5 665.7,320.9 669.5,320.2 673.4,319.6 677.3,319.0 681.1,318.4 685.0,317.8 688.9,317.2 692.7,316.6 696.6,316.1 700.5,315.5 704.3,315.0 708.2,314.4 712.0,313.9 715.9,313.4 719.8,312.9 723.6,312.4 727.5,311.9 731.4,311.4 735.2,310.9 739.1,310.4 743.0,309.9 746.8,309.5 750.7,309.0 754.5,308.5 758.4,308.1 762.3,307.6 766.1,307.2 770.0,306.8 773.9,306.3 777.7,305.9 781.6,305.5 785.5,305.0 789.3,304.6 793.2,304.2 797.0,303.8 800.9,303.4 804.8,303.0 808.6,302.6 812.5,302.2 816.4,301.8 820.2,301.4 824.1,301.0 828.0,300.6 831.8,300.2 835.7,299.8 839.5,299.4 843.4,299.1 847.3,298.7 851.1,298.3 855.0,297.9 858.9,297.6 862.7,297.2 866.6,296.8 870.5,296.5 874.3,296.1 878.2,295.8 882.0,295.4 885.9,295.1 889.8,294.7 893.6,294.4 897.5,294.0 901.4,293.7 905.2,293.3 909.1,293.0 913.0,292.6 916.8,292.3 920.7,292.0 924.5,291.6" fill="none" stroke="#0072b2" stroke-width="2" stroke-linejoin="round"/>
<circle cx="646.4" cy="227.3" r="4" fill="#d55e00" stroke="var(--bg)" stroke-width="1.3"/><circle cx="677.3" cy="210.9" r="4" fill="#d55e00" stroke="var(--bg)" stroke-width="1.3"/><circle cx="708.2" cy="198.2" r="4" fill="#d55e00" stroke="var(--bg)" stroke-width="1.3"/><circle cx="816.4" cy="172.7" r="4" fill="#d55e00" stroke="var(--bg)" stroke-width="1.3"/><circle cx="924.5" cy="154.5" r="4" fill="#d55e00" stroke="var(--bg)" stroke-width="1.3"/>
<circle cx="646.4" cy="324.5" r="4" fill="#0072b2" stroke="var(--bg)" stroke-width="1.3"/><circle cx="677.3" cy="319.1" r="4" fill="#0072b2" stroke="var(--bg)" stroke-width="1.3"/><circle cx="708.2" cy="314.5" r="4" fill="#0072b2" stroke="var(--bg)" stroke-width="1.3"/><circle cx="816.4" cy="301.8" r="4" fill="#0072b2" stroke="var(--bg)" stroke-width="1.3"/><circle cx="924.5" cy="292.7" r="4" fill="#0072b2" stroke="var(--bg)" stroke-width="1.3"/>
<text x="933.8181818181819" y="192.72727272727275" font-size="11.5" font-weight="700" text-anchor="end" style="fill:#d55e00">700 °C · KP n = 0.25</text>
<text x="933.8181818181819" y="270.9090909090909" font-size="11.5" font-weight="700" text-anchor="end" style="fill:#0072b2">1100 °C · KP n = 0.58</text>
<text x="933.8181818181819" y="286.45454545454544" font-size="10.5" text-anchor="end" class="m">Korsmeyer–Peppas: M = k·t^n</text>
<rect x="90" y="470" width="340" height="200" fill="var(--card)" fill-opacity=".5"/>
<line x1="90" y1="648.6" x2="430" y2="648.6" stroke="var(--grid)"/><text x="82" y="652.6" font-size="11" text-anchor="end" class="m">7.4</text>
<line x1="90" y1="620.0" x2="430" y2="620.0" stroke="var(--grid)"/><text x="82" y="624.0" font-size="11" text-anchor="end" class="m">7.6</text>
<line x1="90" y1="591.4" x2="430" y2="591.4" stroke="var(--grid)"/><text x="82" y="595.4" font-size="11" text-anchor="end" class="m">7.8</text>
<line x1="90" y1="562.9" x2="430" y2="562.9" stroke="var(--grid)"/><text x="82" y="566.9" font-size="11" text-anchor="end" class="m">8.0</text>
<line x1="90" y1="534.3" x2="430" y2="534.3" stroke="var(--grid)"/><text x="82" y="538.3" font-size="11" text-anchor="end" class="m">8.2</text>
<line x1="90" y1="505.7" x2="430" y2="505.7" stroke="var(--grid)"/><text x="82" y="509.7" font-size="11" text-anchor="end" class="m">8.4</text>
<line x1="90" y1="477.1" x2="430" y2="477.1" stroke="var(--grid)"/><text x="82" y="481.1" font-size="11" text-anchor="end" class="m">8.6</text>
<text x="90.0" y="686" font-size="11" text-anchor="middle" class="m">0</text><line x1="90.0" y1="670" x2="90.0" y2="674" stroke="var(--mut)"/>
<text x="167.3" y="686" font-size="11" text-anchor="middle" class="m">5</text><line x1="167.3" y1="670" x2="167.3" y2="674" stroke="var(--mut)"/>
<text x="244.5" y="686" font-size="11" text-anchor="middle" class="m">10</text><line x1="244.5" y1="670" x2="244.5" y2="674" stroke="var(--mut)"/>
<text x="321.8" y="686" font-size="11" text-anchor="middle" class="m">15</text><line x1="321.8" y1="670" x2="321.8" y2="674" stroke="var(--mut)"/>
<text x="399.1" y="686" font-size="11" text-anchor="middle" class="m">20</text><line x1="399.1" y1="670" x2="399.1" y2="674" stroke="var(--mut)"/>
<path d="M90 470 V670 H430" fill="none" stroke="var(--fg)" stroke-width="1.2"/>
<text x="260.0" y="706" font-size="12.5" font-weight="600" text-anchor="middle">Immersion time (days)</text>
<text transform="translate(46 570.0) rotate(-90)" font-size="12.5" font-weight="600" text-anchor="middle">Interfacial pH</text>
<rect x="90" y="428" width="22" height="22" rx="5" fill="url(#hdr)"/><text x="101" y="444" font-size="13" font-weight="700" text-anchor="middle" style="fill:#fff">C</text>
<text x="120" y="444" font-size="14" font-weight="700">Interfacial pH response</text>
<text x="90" y="462" font-size="11.5" class="m">700 °C peaks at pH 8.55; 1100 °C stays in window</text>
<rect x="90" y="584.3" width="340" height="71.4" fill="var(--ok)" fill-opacity=".14" stroke="var(--ok)" stroke-opacity=".6"/>
<line x1="90" y1="534.3" x2="430" y2="534.3" stroke="#d55e00" stroke-dasharray="5 4"/>
<text x="424" y="548.3" font-size="10.5" text-anchor="end" class="m">pH 8.2</text>
<text x="424" y="578.3" font-size="10.5" font-weight="600" text-anchor="end" style="fill:var(--ok)">window pH 7.35–7.85</text>
<polyline points="90.0,648.6 105.5,517.1 136.4,484.3 167.3,494.3 198.2,502.9 306.4,508.6 414.5,512.9" fill="none" stroke="#d55e00" stroke-width="2" stroke-linejoin="round"/><circle cx="90.0" cy="648.6" r="3.6" fill="#d55e00" stroke="var(--bg)" stroke-width="1.3"/><circle cx="105.5" cy="517.1" r="3.6" fill="#d55e00" stroke="var(--bg)" stroke-width="1.3"/><circle cx="136.4" cy="484.3" r="3.6" fill="#d55e00" stroke="var(--bg)" stroke-width="1.3"/><circle cx="167.3" cy="494.3" r="3.6" fill="#d55e00" stroke="var(--bg)" stroke-width="1.3"/><circle cx="198.2" cy="502.9" r="3.6" fill="#d55e00" stroke="var(--bg)" stroke-width="1.3"/><circle cx="306.4" cy="508.6" r="3.6" fill="#d55e00" stroke="var(--bg)" stroke-width="1.3"/><circle cx="414.5" cy="512.9" r="3.6" fill="#d55e00" stroke="var(--bg)" stroke-width="1.3"/><polyline points="90.0,648.6 105.5,637.1 136.4,627.1 167.3,620.0 198.2,612.9 306.4,602.9 414.5,588.6" fill="none" stroke="#0072b2" stroke-width="2" stroke-linejoin="round"/><circle cx="90.0" cy="648.6" r="3.6" fill="#0072b2" stroke="var(--bg)" stroke-width="1.3"/><circle cx="105.5" cy="637.1" r="3.6" fill="#0072b2" stroke="var(--bg)" stroke-width="1.3"/><circle cx="136.4" cy="627.1" r="3.6" fill="#0072b2" stroke="var(--bg)" stroke-width="1.3"/><circle cx="167.3" cy="620.0" r="3.6" fill="#0072b2" stroke="var(--bg)" stroke-width="1.3"/><circle cx="198.2" cy="612.9" r="3.6" fill="#0072b2" stroke="var(--bg)" stroke-width="1.3"/><circle cx="306.4" cy="602.9" r="3.6" fill="#0072b2" stroke="var(--bg)" stroke-width="1.3"/><circle cx="414.5" cy="588.6" r="3.6" fill="#0072b2" stroke="var(--bg)" stroke-width="1.3"/>
<rect x="600" y="470" width="340" height="200" fill="var(--card)" fill-opacity=".5"/>
<line x1="600" y1="662.9" x2="940" y2="662.9" stroke="var(--grid)"/><text x="592" y="666.9" font-size="11" text-anchor="end" class="m">50</text>
<line x1="600" y1="627.1" x2="940" y2="627.1" stroke="var(--grid)"/><text x="592" y="631.1" font-size="11" text-anchor="end" class="m">100</text>
<line x1="600" y1="591.4" x2="940" y2="591.4" stroke="var(--grid)"/><text x="592" y="595.4" font-size="11" text-anchor="end" class="m">150</text>
<line x1="600" y1="555.7" x2="940" y2="555.7" stroke="var(--grid)"/><text x="592" y="559.7" font-size="11" text-anchor="end" class="m">200</text>
<line x1="600" y1="520.0" x2="940" y2="520.0" stroke="var(--grid)"/><text x="592" y="524.0" font-size="11" text-anchor="end" class="m">250</text>
<line x1="600" y1="484.3" x2="940" y2="484.3" stroke="var(--grid)"/><text x="592" y="488.3" font-size="11" text-anchor="end" class="m">300</text>
<text x="618.9" y="686" font-size="11" text-anchor="middle" class="m">20</text><line x1="618.9" y1="670" x2="618.9" y2="674" stroke="var(--mut)"/>
<text x="694.4" y="686" font-size="11" text-anchor="middle" class="m">40</text><line x1="694.4" y1="670" x2="694.4" y2="674" stroke="var(--mut)"/>
<text x="770.0" y="686" font-size="11" text-anchor="middle" class="m">60</text><line x1="770.0" y1="670" x2="770.0" y2="674" stroke="var(--mut)"/>
<text x="845.6" y="686" font-size="11" text-anchor="middle" class="m">80</text><line x1="845.6" y1="670" x2="845.6" y2="674" stroke="var(--mut)"/>
<text x="921.1" y="686" font-size="11" text-anchor="middle" class="m">100</text><line x1="921.1" y1="670" x2="921.1" y2="674" stroke="var(--mut)"/>
<path d="M600 470 V670 H940" fill="none" stroke="var(--fg)" stroke-width="1.2"/>
<text x="770.0" y="706" font-size="12.5" font-weight="600" text-anchor="middle">Extract concentration (%)</text>
<text transform="translate(556 570.0) rotate(-90)" font-size="12.5" font-weight="600" text-anchor="middle">Cell viability (%)</text>
<rect x="600" y="428" width="22" height="22" rx="5" fill="url(#hdr)"/><text x="611" y="444" font-size="13" font-weight="700" text-anchor="middle" style="fill:#fff">D</text>
<text x="630" y="444" font-size="14" font-weight="700">Cell viability</text>
<text x="600" y="462" font-size="11.5" class="m">1100 °C ≥ 190% viability at every dose</text>
<line x1="600" y1="648.6" x2="940" y2="648.6" stroke="#d55e00" stroke-dasharray="5 4"/>
<text x="608" y="663.6" font-size="10.5" class="m">70% threshold (ISO 10993-5)</text>
<polyline points="618.9,632.5 694.4,640.7 770.0,647.5 845.6,654.3 921.1,658.2" fill="none" stroke="#d55e00" stroke-width="2" stroke-linejoin="round"/><circle cx="618.9" cy="632.5" r="4" fill="#d55e00" stroke="var(--bg)" stroke-width="1.3"/><circle cx="694.4" cy="640.7" r="4" fill="#d55e00" stroke="var(--bg)" stroke-width="1.3"/><circle cx="770.0" cy="647.5" r="4" fill="#d55e00" stroke="var(--bg)" stroke-width="1.3"/><circle cx="845.6" cy="654.3" r="4" fill="#d55e00" stroke="var(--bg)" stroke-width="1.3"/><circle cx="921.1" cy="658.2" r="4" fill="#d55e00" stroke="var(--bg)" stroke-width="1.3"/><polyline points="618.9,561.4 694.4,528.6 770.0,507.1 845.6,492.9 921.1,482.9" fill="none" stroke="#0072b2" stroke-width="2" stroke-linejoin="round"/><circle cx="618.9" cy="561.4" r="4" fill="#0072b2" stroke="var(--bg)" stroke-width="1.3"/><circle cx="694.4" cy="528.6" r="4" fill="#0072b2" stroke="var(--bg)" stroke-width="1.3"/><circle cx="770.0" cy="507.1" r="4" fill="#0072b2" stroke="var(--bg)" stroke-width="1.3"/><circle cx="845.6" cy="492.9" r="4" fill="#0072b2" stroke="var(--bg)" stroke-width="1.3"/><circle cx="921.1" cy="482.9" r="4" fill="#0072b2" stroke="var(--bg)" stroke-width="1.3"/>
<rect x="90" y="738" width="850" height="38" rx="8" fill="var(--card)" stroke="var(--line)"/>
<text x="108" y="761" font-size="12.5"><tspan class="m b" letter-spacing="1" style="font-size:10.5px">21-DAY RELEASE (mM)</tspan><tspan dx="16" style="fill:#d55e00;font-weight:700">700 °C: Ca 4.02 · Si 1.34</tspan><tspan dx="16" style="fill:#0072b2;font-weight:700">1100 °C: Ca 1.02 · Si 0.34</tspan><tspan dx="16" class="m">Ca : Si ≈ 3.0 at both temperatures · ≈4× higher release at 700 °C</tspan></text>
</svg>
