<?xml version="1.0" encoding="utf-8" standalone="no"?>
<!DOCTYPE svg PUBLIC "-//W3C//DTD SVG 1.1//EN"
  "http://www.w3.org/Graphics/SVG/1.1/DTD/svg11.dtd">
<svg xmlns:xlink="http://www.w3.org/1999/xlink" width="493.252211pt" height="348.921845pt" viewBox="0 0 493.252211 348.921845" xmlns="http://www.w3.org/2000/svg" version="1.1">
 <metadata>
  <rdf:RDF xmlns:dc="http://purl.org/dc/elements/1.1/" xmlns:cc="http://creativecommons.org/ns#" xmlns:rdf="http://www.w3.org/1999/02/22-rdf-syntax-ns#">
   <cc:Work>
    <dc:type rdf:resource="http://purl.org/dc/dcmitype/StillImage"/>
    <dc:date>2026-10-05T03:41:55.054977</dc:date>
    <dc:format>image/svg+xml</dc:format>
    <dc:creator>
     <cc:Agent>
      <dc:title>Matplotlib v3.11.2, https://matplotlib.org/</dc:title>
     </cc:Agent>
    </dc:creator>
   </cc:Work>
  </rdf:RDF>
 </metadata>
 <defs>
  <style type="text/css">*{stroke-linejoin: round; stroke-linecap: butt}</style>
 </defs>
 <g id="figure_1">
  <g id="patch_1">
   <path d="M 0 348.921845 
L 493.252211 348.921845 
L 493.252211 0 
L 0 0 
z
" style="fill: #ffffff"/>
  </g>
  <g id="axes_1">
   <g id="patch_2">
    <path d="M 20.200703 286.906095 
L 486.052211 286.906095 
L 486.052211 73.815884 
L 20.200703 73.815884 
z
" style="fill: #ffffff"/>
   </g>
   <g id="matplotlib.axis_1">
    <g id="xtick_1">
     <g id="line2d_1">
      <defs>
       <path id="m938eba61d4" d="M 0 0 
L 0 3 
" style="stroke: #000000; stroke-width: 0.8"/>
      </defs>
      <g>
       <use xlink:href="#m938eba61d4" x="22.324646" y="286.906095" style="stroke: #000000; stroke-width: 0.8"/>
      </g>
     </g>
     <g id="text_1">
      <text style="font-size: 8px; font-family: 'Arial', 'DejaVu Sans', sans-serif; text-anchor: middle" x="22.324646" y="299.48422" transform="rotate(-0 22.324646 299.48422)">20</text>
     </g>
    </g>
    <g id="xtick_2">
     <g id="line2d_2">
      <g>
       <use xlink:href="#m938eba61d4" x="93.122748" y="286.906095" style="stroke: #000000; stroke-width: 0.8"/>
      </g>
     </g>
     <g id="text_2">
      <text style="font-size: 8px; font-family: 'Arial', 'DejaVu Sans', sans-serif; text-anchor: middle" x="93.122748" y="299.48422" transform="rotate(-0 93.122748 299.48422)">30</text>
     </g>
    </g>
    <g id="xtick_3">
     <g id="line2d_3">
      <g>
       <use xlink:href="#m938eba61d4" x="163.920849" y="286.906095" style="stroke: #000000; stroke-width: 0.8"/>
      </g>
     </g>
     <g id="text_3">
      <text style="font-size: 8px; font-family: 'Arial', 'DejaVu Sans', sans-serif; text-anchor: middle" x="163.920849" y="299.48422" transform="rotate(-0 163.920849 299.48422)">40</text>
     </g>
    </g>
    <g id="xtick_4">
     <g id="line2d_4">
      <g>
       <use xlink:href="#m938eba61d4" x="234.718951" y="286.906095" style="stroke: #000000; stroke-width: 0.8"/>
      </g>
     </g>
     <g id="text_4">
      <text style="font-size: 8px; font-family: 'Arial', 'DejaVu Sans', sans-serif; text-anchor: middle" x="234.718951" y="299.48422" transform="rotate(-0 234.718951 299.48422)">50</text>
     </g>
    </g>
    <g id="xtick_5">
     <g id="line2d_5">
      <g>
       <use xlink:href="#m938eba61d4" x="305.517052" y="286.906095" style="stroke: #000000; stroke-width: 0.8"/>
      </g>
     </g>
     <g id="text_5">
      <text style="font-size: 8px; font-family: 'Arial', 'DejaVu Sans', sans-serif; text-anchor: middle" x="305.517052" y="299.48422" transform="rotate(-0 305.517052 299.48422)">60</text>
     </g>
    </g>
    <g id="xtick_6">
     <g id="line2d_6">
      <g>
       <use xlink:href="#m938eba61d4" x="376.315153" y="286.906095" style="stroke: #000000; stroke-width: 0.8"/>
      </g>
     </g>
     <g id="text_6">
      <text style="font-size: 8px; font-family: 'Arial', 'DejaVu Sans', sans-serif; text-anchor: middle" x="376.315153" y="299.48422" transform="rotate(-0 376.315153 299.48422)">70</text>
     </g>
    </g>
    <g id="xtick_7">
     <g id="line2d_7">
      <g>
       <use xlink:href="#m938eba61d4" x="447.113255" y="286.906095" style="stroke: #000000; stroke-width: 0.8"/>
      </g>
     </g>
     <g id="text_7">
      <text style="font-size: 8px; font-family: 'Arial', 'DejaVu Sans', sans-serif; text-anchor: middle" x="447.113255" y="299.48422" transform="rotate(-0 447.113255 299.48422)">80</text>
     </g>
    </g>
    <g id="text_8">
     <!-- 2$\theta$ (°) -->
     <g transform="translate(240.301457 312.336095)">
      <text>
       <tspan x="0" y="-0.09375" style="font-size: 9px; font-family: 'DejaVu Sans'">2</tspan>
       <tspan x="11.232422" y="-0.09375" style="font-size: 9px; font-family: 'DejaVu Sans'"> </tspan>
       <tspan x="14.093262" y="-0.09375" style="font-size: 9px; font-family: 'DejaVu Sans'">(</tspan>
       <tspan x="17.604492" y="-0.09375" style="font-size: 9px; font-family: 'DejaVu Sans'">°</tspan>
       <tspan x="22.104492" y="-0.09375" style="font-size: 9px; font-family: 'DejaVu Sans'">)</tspan>
       <tspan x="5.726074" y="-0.09375" style="font-style: oblique; font-size: 9px; font-family: 'DejaVu Sans'">θ</tspan>
      </text>
     </g>
    </g>
   </g>
   <g id="matplotlib.axis_2">
    <g id="text_9">
     <text style="font-size: 9px; font-family: 'Arial', 'DejaVu Sans', sans-serif; text-anchor: middle" x="14.038594" y="180.36099" transform="rotate(-90 14.038594 180.36099)">Intensity (a.u., offset)</text>
    </g>
   </g>
   <g id="line2d_8">
    <path d="M 22.324646 283.430432 
L 22.678637 283.412292 
L 23.032627 283.385723 
" clip-path="url(#p1ff7e7e302)" style="fill: none; stroke: #0072b2; stroke-linecap: square"/>
    <defs>
     <path id="mb3e0202d49" d="M 0 0.9 
C 0.238683 0.9 0.467622 0.80517 0.636396 0.636396 
C 0.80517 0.467622 0.9 0.238683 0.9 0 
C 0.9 -0.238683 0.80517 -0.467622 0.636396 -0.636396 
C 0.467622 -0.80517 0.238683 -0.9 0 -0.9 
C -0.238683 -0.9 -0.467622 -0.80517 -0.636396 -0.636396 
C -0.80517 -0.467622 -0.9 -0.238683 -0.9 0 
C -0.9 0.238683 -0.80517 0.467622 -0.636396 0.636396 
C -0.467622 0.80517 -0.238683 0.9 0 0.9 
z
" style="stroke: #0072b2"/>
    </defs>
    <g clip-path="url(#p1ff7e7e302)">
     <use xlink:href="#mb3e0202d49" x="22.324646" y="283.430432" style="fill: #0072b2; stroke: #0072b2"/>
     <use xlink:href="#mb3e0202d49" x="22.678637" y="283.412292" style="fill: #0072b2; stroke: #0072b2"/>
     <use xlink:href="#mb3e0202d49" x="23.032627" y="283.385723" style="fill: #0072b2; stroke: #0072b2"/>
    </g>
   </g>
   <g id="line2d_9">
    <path d="M 92.414767 276.451727 
L 93.122748 272.1351 
" clip-path="url(#p1ff7e7e302)" style="fill: none; stroke: #0072b2; stroke-linecap: square"/>
    <g clip-path="url(#p1ff7e7e302)">
     <use xlink:href="#mb3e0202d49" x="92.414767" y="276.451727" style="fill: #0072b2; stroke: #0072b2"/>
     <use xlink:href="#mb3e0202d49" x="93.122748" y="272.1351" style="fill: #0072b2; stroke: #0072b2"/>
    </g>
   </g>
   <g id="line2d_10">
    <path d="M 447.113255 283.499888 
" clip-path="url(#p1ff7e7e302)" style="fill: none; stroke: #0072b2; stroke-linecap: square"/>
    <g clip-path="url(#p1ff7e7e302)">
     <use xlink:href="#mb3e0202d49" x="447.113255" y="283.499888" style="fill: #0072b2; stroke: #0072b2"/>
    </g>
   </g>
   <g id="line2d_11">
    <path d="M 22.324646 241.657131 
L 22.678637 241.639261 
L 23.032627 241.623684 
" clip-path="url(#p1ff7e7e302)" style="fill: none; stroke: #009e73; stroke-linecap: square"/>
    <defs>
     <path id="m5c203aacef" d="M 0 0.9 
C 0.238683 0.9 0.467622 0.80517 0.636396 0.636396 
C 0.80517 0.467622 0.9 0.238683 0.9 0 
C 0.9 -0.238683 0.80517 -0.467622 0.636396 -0.636396 
C 0.467622 -0.80517 0.238683 -0.9 0 -0.9 
C -0.238683 -0.9 -0.467622 -0.80517 -0.636396 -0.636396 
C -0.80517 -0.467622 -0.9 -0.238683 -0.9 0 
C -0.9 0.238683 -0.80517 0.467622 -0.636396 0.636396 
C -0.467622 0.80517 -0.238683 0.9 0 0.9 
z
" style="stroke: #009e73"/>
    </defs>
    <g clip-path="url(#p1ff7e7e302)">
     <use xlink:href="#m5c203aacef" x="22.324646" y="241.657131" style="fill: #009e73; stroke: #009e73"/>
     <use xlink:href="#m5c203aacef" x="22.678637" y="241.639261" style="fill: #009e73; stroke: #009e73"/>
     <use xlink:href="#m5c203aacef" x="23.032627" y="241.623684" style="fill: #009e73; stroke: #009e73"/>
    </g>
   </g>
   <g id="line2d_12">
    <path d="M 92.414767 230.598221 
L 93.122748 228.573999 
" clip-path="url(#p1ff7e7e302)" style="fill: none; stroke: #009e73; stroke-linecap: square"/>
    <g clip-path="url(#p1ff7e7e302)">
     <use xlink:href="#m5c203aacef" x="92.414767" y="230.598221" style="fill: #009e73; stroke: #009e73"/>
     <use xlink:href="#m5c203aacef" x="93.122748" y="228.573999" style="fill: #009e73; stroke: #009e73"/>
    </g>
   </g>
   <g id="line2d_13">
    <path d="M 447.113255 241.711415 
" clip-path="url(#p1ff7e7e302)" style="fill: none; stroke: #009e73; stroke-linecap: square"/>
    <g clip-path="url(#p1ff7e7e302)">
     <use xlink:href="#m5c203aacef" x="447.113255" y="241.711415" style="fill: #009e73; stroke: #009e73"/>
    </g>
   </g>
   <g id="line2d_14">
    <path d="M 22.324646 199.860565 
L 22.678637 199.848629 
L 23.032627 199.835547 
" clip-path="url(#p1ff7e7e302)" style="fill: none; stroke: #e69f00; stroke-linecap: square"/>
    <defs>
     <path id="m6561b26656" d="M 0 0.9 
C 0.238683 0.9 0.467622 0.80517 0.636396 0.636396 
C 0.80517 0.467622 0.9 0.238683 0.9 0 
C 0.9 -0.238683 0.80517 -0.467622 0.636396 -0.636396 
C 0.467622 -0.80517 0.238683 -0.9 0 -0.9 
C -0.238683 -0.9 -0.467622 -0.80517 -0.636396 -0.636396 
C -0.80517 -0.467622 -0.9 -0.238683 -0.9 0 
C -0.9 0.238683 -0.80517 0.467622 -0.636396 0.636396 
C -0.467622 0.80517 -0.238683 0.9 0 0.9 
z
" style="stroke: #e69f00"/>
    </defs>
    <g clip-path="url(#p1ff7e7e302)">
     <use xlink:href="#m6561b26656" x="22.324646" y="199.860565" style="fill: #e69f00; stroke: #e69f00"/>
     <use xlink:href="#m6561b26656" x="22.678637" y="199.848629" style="fill: #e69f00; stroke: #e69f00"/>
     <use xlink:href="#m6561b26656" x="23.032627" y="199.835547" style="fill: #e69f00; stroke: #e69f00"/>
    </g>
   </g>
   <g id="line2d_15">
    <path d="M 92.414767 185.0102 
L 93.122748 181.169384 
" clip-path="url(#p1ff7e7e302)" style="fill: none; stroke: #e69f00; stroke-linecap: square"/>
    <g clip-path="url(#p1ff7e7e302)">
     <use xlink:href="#m6561b26656" x="92.414767" y="185.0102" style="fill: #e69f00; stroke: #e69f00"/>
     <use xlink:href="#m6561b26656" x="93.122748" y="181.169384" style="fill: #e69f00; stroke: #e69f00"/>
    </g>
   </g>
   <g id="line2d_16">
    <path d="M 447.113255 199.909656 
" clip-path="url(#p1ff7e7e302)" style="fill: none; stroke: #e69f00; stroke-linecap: square"/>
    <g clip-path="url(#p1ff7e7e302)">
     <use xlink:href="#m6561b26656" x="447.113255" y="199.909656" style="fill: #e69f00; stroke: #e69f00"/>
    </g>
   </g>
   <g id="line2d_17">
    <path d="M 22.324646 158.073372 
L 22.678637 158.064741 
L 23.032627 158.05294 
" clip-path="url(#p1ff7e7e302)" style="fill: none; stroke: #d55e00; stroke-linecap: square"/>
    <defs>
     <path id="m7244be6cfd" d="M 0 0.9 
C 0.238683 0.9 0.467622 0.80517 0.636396 0.636396 
C 0.80517 0.467622 0.9 0.238683 0.9 0 
C 0.9 -0.238683 0.80517 -0.467622 0.636396 -0.636396 
C 0.467622 -0.80517 0.238683 -0.9 0 -0.9 
C -0.238683 -0.9 -0.467622 -0.80517 -0.636396 -0.636396 
C -0.80517 -0.467622 -0.9 -0.238683 -0.9 0 
C -0.9 0.238683 -0.80517 0.467622 -0.636396 0.636396 
C -0.467622 0.80517 -0.238683 0.9 0 0.9 
z
" style="stroke: #d55e00"/>
    </defs>
    <g clip-path="url(#p1ff7e7e302)">
     <use xlink:href="#m7244be6cfd" x="22.324646" y="158.073372" style="fill: #d55e00; stroke: #d55e00"/>
     <use xlink:href="#m7244be6cfd" x="22.678637" y="158.064741" style="fill: #d55e00; stroke: #d55e00"/>
     <use xlink:href="#m7244be6cfd" x="23.032627" y="158.05294" style="fill: #d55e00; stroke: #d55e00"/>
    </g>
   </g>
   <g id="line2d_18">
    <path d="M 92.414767 138.414586 
L 93.122748 133.490584 
" clip-path="url(#p1ff7e7e302)" style="fill: none; stroke: #d55e00; stroke-linecap: square"/>
    <g clip-path="url(#p1ff7e7e302)">
     <use xlink:href="#m7244be6cfd" x="92.414767" y="138.414586" style="fill: #d55e00; stroke: #d55e00"/>
     <use xlink:href="#m7244be6cfd" x="93.122748" y="133.490584" style="fill: #d55e00; stroke: #d55e00"/>
    </g>
   </g>
   <g id="line2d_19">
    <path d="M 447.113255 158.107089 
" clip-path="url(#p1ff7e7e302)" style="fill: none; stroke: #d55e00; stroke-linecap: square"/>
    <g clip-path="url(#p1ff7e7e302)">
     <use xlink:href="#m7244be6cfd" x="447.113255" y="158.107089" style="fill: #d55e00; stroke: #d55e00"/>
    </g>
   </g>
   <g id="line2d_20">
    <path d="M 22.324646 116.286382 
L 22.678637 116.278087 
L 23.032627 116.268714 
" clip-path="url(#p1ff7e7e302)" style="fill: none; stroke: #666666; stroke-linecap: square"/>
    <defs>
     <path id="m4a785ae3c7" d="M 0 0.9 
C 0.238683 0.9 0.467622 0.80517 0.636396 0.636396 
C 0.80517 0.467622 0.9 0.238683 0.9 0 
C 0.9 -0.238683 0.80517 -0.467622 0.636396 -0.636396 
C 0.467622 -0.80517 0.238683 -0.9 0 -0.9 
C -0.238683 -0.9 -0.467622 -0.80517 -0.636396 -0.636396 
C -0.80517 -0.467622 -0.9 -0.238683 -0.9 0 
C -0.9 0.238683 -0.80517 0.467622 -0.636396 0.636396 
C -0.467622 0.80517 -0.238683 0.9 0 0.9 
z
" style="stroke: #666666"/>
    </defs>
    <g clip-path="url(#p1ff7e7e302)">
     <use xlink:href="#m4a785ae3c7" x="22.324646" y="116.286382" style="fill: #666666; stroke: #666666"/>
     <use xlink:href="#m4a785ae3c7" x="22.678637" y="116.278087" style="fill: #666666; stroke: #666666"/>
     <use xlink:href="#m4a785ae3c7" x="23.032627" y="116.268714" style="fill: #666666; stroke: #666666"/>
    </g>
   </g>
   <g id="line2d_21">
    <path d="M 92.414767 84.941621 
L 93.122748 82.508886 
" clip-path="url(#p1ff7e7e302)" style="fill: none; stroke: #666666; stroke-linecap: square"/>
    <g clip-path="url(#p1ff7e7e302)">
     <use xlink:href="#m4a785ae3c7" x="92.414767" y="84.941621" style="fill: #666666; stroke: #666666"/>
     <use xlink:href="#m4a785ae3c7" x="93.122748" y="82.508886" style="fill: #666666; stroke: #666666"/>
    </g>
   </g>
   <g id="line2d_22">
    <path d="M 447.113255 116.300071 
" clip-path="url(#p1ff7e7e302)" style="fill: none; stroke: #666666; stroke-linecap: square"/>
    <g clip-path="url(#p1ff7e7e302)">
     <use xlink:href="#m4a785ae3c7" x="447.113255" y="116.300071" style="fill: #666666; stroke: #666666"/>
    </g>
   </g>
   <g id="line2d_23">
    <path d="M 92.414767 286.906095 
L 92.414767 73.815884 
" clip-path="url(#p1ff7e7e302)" style="fill: none; stroke-dasharray: 1.6,1.6; stroke-dashoffset: 0; stroke: #009e73; stroke-opacity: 0.85; stroke-width: 0.8"/>
   </g>
   <g id="line2d_24">
    <path d="M 100.202558 286.906095 
L 100.202558 73.815884 
" clip-path="url(#p1ff7e7e302)" style="fill: none; stroke-dasharray: 1.6,1.6; stroke-dashoffset: 0; stroke: #e69f00; stroke-opacity: 0.85; stroke-width: 0.8"/>
   </g>
   <g id="line2d_25">
    <path d="M 108.69833 286.906095 
L 108.69833 73.815884 
" clip-path="url(#p1ff7e7e302)" style="fill: none; stroke-dasharray: 1.6,1.6; stroke-dashoffset: 0; stroke: #0072b2; stroke-opacity: 0.85; stroke-width: 0.8"/>
   </g>
   <g id="patch_3">
    <path d="M 20.200703 286.906095 
L 20.200703 73.815884 
" style="fill: none; stroke: #000000; stroke-width: 0.8; stroke-linejoin: miter; stroke-linecap: square"/>
   </g>
   <g id="patch_4">
    <path d="M 20.200703 286.906095 
L 486.052211 286.906095 
" style="fill: none; stroke: #000000; stroke-width: 0.8; stroke-linejoin: miter; stroke-linecap: square"/>
   </g>
   <g id="text_10">
    <text style="font-size: 8px; font-family: 'Arial', 'DejaVu Sans', sans-serif; text-anchor: start; fill: #0072b2" x="452.069122" y="285.578013" transform="rotate(-0 452.069122 285.578013)">700 °C</text>
   </g>
   <g id="text_11">
    <text style="font-size: 8px; font-family: 'Arial', 'DejaVu Sans', sans-serif; text-anchor: start; fill: #009e73" x="452.069122" y="243.78954" transform="rotate(-0 452.069122 243.78954)">800 °C</text>
   </g>
   <g id="text_12">
    <text style="font-size: 8px; font-family: 'Arial', 'DejaVu Sans', sans-serif; text-anchor: start; fill: #e69f00" x="452.069122" y="201.987781" transform="rotate(-0 452.069122 201.987781)">900 °C</text>
   </g>
   <g id="text_13">
    <text style="font-size: 8px; font-family: 'Arial', 'DejaVu Sans', sans-serif; text-anchor: start; fill: #d55e00" x="452.069122" y="160.185214" transform="rotate(-0 452.069122 160.185214)">1000 °C</text>
   </g>
   <g id="text_14">
    <text style="font-size: 8px; font-family: 'Arial', 'DejaVu Sans', sans-serif; text-anchor: start; fill: #666666" x="452.069122" y="118.378196" transform="rotate(-0 452.069122 118.378196)">1100 °C</text>
   </g>
   <g id="text_15">
    <text style="font-size: 7.5px; font-family: 'Arial', 'DejaVu Sans', sans-serif; fill: #009e73" transform="translate(94.363302 70.619531) rotate(-90)">Wollastonite</text>
   </g>
   <g id="text_16">
    <text style="font-size: 7.5px; font-family: 'Arial', 'DejaVu Sans', sans-serif; fill: #e69f00" transform="translate(102.151093 70.619531) rotate(-90)">Whitlockite</text>
   </g>
   <g id="text_17">
    <text style="font-size: 7.5px; font-family: 'Arial', 'DejaVu Sans', sans-serif; fill: #0072b2" transform="translate(110.646865 70.619531) rotate(-90)">Fluorapatite / HA</text>
   </g>
  </g>
  <g id="text_18">
   <text style="font-size: 7px; font-family: 'Arial', 'DejaVu Sans', sans-serif; text-anchor: middle; fill: #555555" x="248.398594" y="340.040204" transform="rotate(-0 248.398594 340.040204)">Nominal Cu Kα reference angles; measured scan contains 6 sampled positions</text>
  </g>
 </g>
 <defs>
  <clipPath id="p1ff7e7e302">
   <rect x="20.200703" y="73.815884" width="465.851508" height="213.090211"/>
  </clipPath>
 </defs>
</svg>
